<?xml version="1.0" encoding="utf-8"?>
<!-- Generator: Adobe Illustrator 17.1.0, SVG Export Plug-In . SVG Version: 6.00 Build 0)  -->
<!DOCTYPE svg PUBLIC "-//W3C//DTD SVG 1.1//EN" "http://www.w3.org/Graphics/SVG/1.1/DTD/svg11.dtd">
<svg version="1.1" xmlns="http://www.w3.org/2000/svg" xmlns:xlink="http://www.w3.org/1999/xlink" x="0px" y="0px"
	 viewBox="0 0 523.5 133.8" enable-background="new 0 0 523.5 133.8" xml:space="preserve">
<g id="Layer_1">
</g>
<g id="Layer_2">
	<g>
		<g>
			<g>
				<path fill="#3EB396" d="M20.3,4.1C14.7,7,9.1,10,4.3,14.9c-4.4,4.5-5.6,12.2-2.9,18c2.7,5.6,6.5,10.6,11,15.4
					C9.3,32.6,12.6,16.7,20.3,4.1z"/>
				<path fill="#DF1764" d="M15.7,51.2c5.5,3.5,10.9,6.8,17.2,8.3c6.9,1.6,13.4-1.3,17.5-6.8c3.4-5.3,5.6-10.9,7.5-16.8
					C45.9,46,31.9,51.3,15.7,51.2z"/>
				<path fill="#505150" d="M56.8,8.8c-2.6-5-7.9-8.2-13.3-8.7C37-0.2,30.9,0.6,25.1,2c13.7,4.4,27.3,15.8,34.3,28.9
					C59.7,23.3,60,15.2,56.8,8.8z"/>
			</g>
			<g>
				<path fill="#505150" d="M176.5,30.9v24.4h-7V30.9h-16.1c0,0,0,58.3,0,59.1c0.8,0,16.1,0,16.1,0V65.5h6.9l0,24.5
					c0,0,15.3,0,16.1,0c0-0.8,0-59.1,0-59.1H176.5z"/>
				<path fill="#505150" d="M208.2,30.9c-5.1,0-8.6,4.4-8.6,9.7V90h16c0-0.8,0-24.5,0-24.5h6.5V90l15.9,0V30.9
					C238,30.9,209.9,30.9,208.2,30.9z M222.1,55.3h-6.5c0,0,0-11.6,0-12c0-2.2,0.8-3,2.8-3c0.2,0,3.7,0,3.7,0L222.1,55.3z"/>
				<path fill="#505150" d="M104.4,60.1c3.7-0.4,8-4.3,8-9.5c0-2.7,0-10,0-10c-0.1-5.4-4.1-9.7-8.3-9.7c-2.9,0-30.5,0-30.5,0V90
					h15.9V65.5c0,0,3.9,0,4,0c1.9,0,2.8,0.9,2.8,3.1V90h16.1c0-0.2,0-18.6,0-20.3C112.4,64.5,108.2,60.5,104.4,60.1z M96.3,52.3
					c0.1,1.8-0.7,2.8-2,3l-4.7,0v-15c0,0,3.6,0,4,0c2,0,2.8,1,2.8,3L96.3,52.3z"/>
				<path fill="#505150" d="M135.5,42.3h10.9V30.9l-27.1,0c0,0,0,58.3,0,59.1c0.8,0,27.1,0,27.1,0V78.6l-11,0V65.5h9.3V55.3h-9.3
					L135.5,42.3z"/>
				<path fill="#505150" d="M282.4,84.1c0.9-2.2,1.1-4.4,1.1-7.1c0-0.7,0-46,0-46h-15.7c0,0,0,45.2,0,45.6c0,1.3-0.8,3.3-3.5,3.3
					c-0.1,0-0.1,0-0.1,0c-2.7,0-3.5-2.1-3.5-3.3c0-0.4,0-45.6,0-45.6h-15.7c0,0,0,45.4,0,46c0,2.9,0.2,5,1.1,7.1
					c1.2,2.7,3.9,4.9,6.7,5.6c1.1,0.3,2.6,0.3,4.3,0.3h14.4c1.7,0,3.1-0.1,4.3-0.3C278.6,88.9,281.2,86.8,282.4,84.1z"/>
			</g>
		</g>
		<path fill="#DF1764" d="M354.6,56.9c0-2.7,0-16.4,0-16.4c-0.1-5.4-4.1-9.7-8.3-9.7c-2.9,0-30.5,0-30.5,0V90h15.9V65.5
			c0,0,14.3,0,14.4,0C349.4,65.5,354.6,62.1,354.6,56.9z M338.5,52.4c0.1,1.8-0.7,2.8-2,3l-4.7,0v-15c0,0,3.6,0,4,0c2,0,2.8,1,2.8,3
			L338.5,52.4z"/>
		<path fill="#DF1764" d="M447.2,44c0-2.9-0.2-5-1.1-7.1c-1.2-2.7-3.9-4.9-6.7-5.6c-1.1-0.3-2.6-0.3-4.3-0.3h-14.4
			c-1.7,0-3.1,0.1-4.3,0.3c-3,0.8-5.5,2.9-6.7,5.6c-0.9,2.2-1.1,4.4-1.1,7.1c0,0.4,0,8.3,0,14.6c0,8,0,17.9,0,18.3
			c0,2.9,0.2,5,1.1,7.1c1.2,2.7,3.9,4.9,6.7,5.6c1.1,0.3,2.6,0.3,4.3,0.3h14.4c1.7,0,3.1-0.1,4.3-0.3c3-0.8,5.5-2.9,6.7-5.6
			c0.9-2.2,1.1-4.4,1.1-7.1c0-0.4,0-10.4,0-18.4C447.2,52.2,447.2,44.4,447.2,44z M428,79.9c-0.1,0-0.1,0-0.1,0
			c-2.7,0-3.5-2.1-3.5-3.3c0-0.2,0-4.8,0-10.3h0c0,0,0-3.5,0-7.7c0-5.3,0-9.8,0-9.8h0c0-2.5,0-4.3,0-4.4c0-1.3,0.8-3.3,3.5-3.3
			c0.1,0,0.1,0,0.1,0c2.7,0,3.5,2.1,3.5,3.3c0,0.1,0,1.9,0,4.4h0c0,0,0,4.5,0,9.8c0,4.2,0,7.7,0,7.7h0c0,5.5,0,10.1,0,10.3
			C431.5,77.8,430.6,79.9,428,79.9z"/>
		<path fill="#DF1764" d="M377.7,72.5h-4.5l7.9-9.2l7.9,9.2h-4.4V90h16.1c0-0.2,0-18.6,0-20.3c0-5.2-4.2-9.2-8-9.6
			c3.7-0.4,8-4.3,8-9.5c0-2.7,0-10,0-10c-0.1-5.4-4.1-9.7-8.3-9.7c-2.9,0-30.5,0-30.5,0V90h15.9h0V72.5z M377.6,51.9V40.4h6.8v11.5
			h4.5l-7.9,9.2l-7.9-9.2H377.6z"/>
		<rect x="297.9" y="30.9" fill="#DF1764" width="3" height="59.1"/>
	</g>
	<g>
		<path fill="#3EB396" d="M80.1,126.5c-0.1-0.4-0.3-0.7-0.4-0.9c-0.2-0.2-0.3-0.4-0.5-0.6c-0.2-0.1-0.4-0.2-0.6-0.3
			s-0.4-0.1-0.7-0.1H76v5.6c0,0.1,0,0.2-0.1,0.3c0,0.1-0.1,0.1-0.3,0.1h-1.5c-0.3,0-0.4-0.1-0.4-0.4v-12.8c0-0.3,0.1-0.4,0.4-0.4
			h1.5c0.2,0,0.2,0,0.3,0.1s0.1,0.2,0.1,0.3v5.2h1.8c0.2,0,0.4,0,0.6-0.1c0.2,0,0.4-0.1,0.6-0.2c0.2-0.1,0.4-0.3,0.5-0.5
			c0.2-0.2,0.3-0.5,0.4-0.9l1.1-3.4c0.1-0.2,0.1-0.3,0.2-0.4c0.1-0.1,0.2-0.1,0.5-0.1H83c0.2,0,0.3,0,0.4,0.1s0,0.2,0,0.4l-1.1,3.5
			c-0.2,0.7-0.5,1.2-0.8,1.7c-0.3,0.4-0.7,0.7-1.1,0.9c0.5,0.2,0.9,0.5,1.2,1c0.3,0.5,0.5,1,0.7,1.7l1.2,3.9c0.1,0.2,0.1,0.3,0,0.4
			c0,0.1-0.2,0.1-0.4,0.1h-1.4c-0.2,0-0.4,0-0.5-0.1s-0.2-0.2-0.2-0.4L80.1,126.5z"/>
		<path fill="#3EB396" d="M89.3,123.7c-0.1,1.3-0.2,2.3-0.3,3.2c-0.1,0.9-0.3,1.6-0.6,2.2c-0.3,0.6-0.7,1-1.2,1.3
			c-0.5,0.3-1.2,0.4-2.1,0.4c-0.3,0-0.4,0-0.5-0.1c-0.1-0.1-0.1-0.2-0.1-0.3l0-0.9c0-0.1,0-0.2,0.1-0.3s0.1-0.1,0.3-0.1
			c0.4-0.1,0.8-0.2,1-0.3s0.5-0.3,0.6-0.6s0.3-0.6,0.4-1.1c0.1-0.4,0.2-1,0.2-1.8l0.5-7.9c0-0.3,0.1-0.4,0.4-0.4h7
			c0.2,0,0.4,0.1,0.4,0.4v12.8c0,0.1,0,0.2-0.1,0.3c0,0.1-0.1,0.1-0.3,0.1h-1.5c-0.3,0-0.4-0.1-0.4-0.4V119h-3.4L89.3,123.7z"/>
		<path fill="#3EB396" d="M101.6,127.5l-4.3-10.1c0-0.1,0-0.2,0-0.3s0.1-0.1,0.2-0.1h1.7c0.2,0,0.3,0,0.4,0.1c0.1,0,0.1,0.1,0.2,0.3
			l1.4,3.7l1.5,4h0.1l1.6-4.1l1.3-3.6c0.1-0.1,0.2-0.2,0.2-0.3c0.1-0.1,0.2-0.1,0.4-0.1h1.6c0.1,0,0.2,0,0.2,0.1c0,0.1,0,0.2,0,0.3
			l-4.1,10.1c-0.2,0.5-0.5,1-0.7,1.4c-0.2,0.4-0.5,0.8-0.7,1.1c-0.3,0.3-0.6,0.5-0.9,0.7c-0.3,0.2-0.7,0.2-1.2,0.2
			c-0.2,0-0.4,0-0.7,0c-0.3,0-0.5-0.1-0.8-0.1c-0.2,0-0.3-0.1-0.4-0.2c-0.1-0.1-0.1-0.2-0.1-0.4l0.1-0.8c0-0.2,0.1-0.2,0.1-0.3
			s0.2-0.1,0.4,0c0.4,0,0.7,0,0.9,0c0.2,0,0.4-0.1,0.6-0.1c0.2-0.1,0.3-0.2,0.4-0.3c0.1-0.1,0.2-0.3,0.3-0.5L101.6,127.5z"/>
		<path fill="#3EB396" d="M110,117.4c0-0.2,0.1-0.4,0.3-0.4h7.6c0.3,0,0.4,0.1,0.4,0.4v1.2c0,0.3-0.1,0.4-0.4,0.4h-5.6v3.4h2.7
			c0.9,0,1.6,0.1,2.2,0.4c0.6,0.3,1,0.6,1.4,1c0.3,0.4,0.6,0.8,0.7,1.3c0.1,0.5,0.2,1,0.2,1.4c0,0.7-0.1,1.3-0.4,1.8
			c-0.2,0.5-0.6,0.9-1,1.3c-0.4,0.3-0.9,0.6-1.4,0.7s-1.1,0.2-1.7,0.2h-4.6c-0.3,0-0.4-0.1-0.4-0.4V117.4z M117.1,126.6
			c0-0.6-0.2-1.2-0.5-1.6c-0.3-0.4-0.9-0.6-1.7-0.6h-2.6v4.3h2.5c0.7,0,1.3-0.2,1.7-0.5C116.9,127.8,117.1,127.3,117.1,126.6z"/>
		<path fill="#3EB396" d="M127,123.9c0-0.9,0.1-1.7,0.2-2.6c0.1-0.8,0.4-1.6,0.8-2.3c0.4-0.7,1-1.2,1.7-1.6c0.7-0.4,1.7-0.6,2.8-0.6
			c0.2,0,0.5,0,0.9,0c0.3,0,0.7,0.1,1,0.1s0.7,0.1,1,0.2c0.3,0.1,0.6,0.2,0.9,0.3c0.2,0.1,0.3,0.2,0.3,0.2s0.1,0.2,0.1,0.4l-0.2,0.8
			c0,0.1-0.1,0.2-0.1,0.3s-0.2,0.1-0.4,0c-0.5-0.1-1.1-0.1-1.6-0.2c-0.6-0.1-1.1-0.1-1.7-0.1c-0.7,0-1.3,0.1-1.7,0.4
			c-0.4,0.3-0.7,0.6-1,1.1c-0.2,0.5-0.4,1-0.4,1.6c-0.1,0.6-0.1,1.2-0.1,1.9c0,0.7,0,1.3,0.1,1.9c0.1,0.6,0.2,1.1,0.5,1.5
			c0.2,0.4,0.6,0.8,1,1c0.4,0.2,1,0.4,1.6,0.4c0.6,0,1.2,0,1.7-0.1s1.1-0.1,1.6-0.2c0.2,0,0.3,0,0.4,0s0.1,0.2,0.2,0.3l0.2,0.8
			c0.1,0.3,0,0.5-0.3,0.7c-0.2,0.1-0.5,0.2-0.9,0.3c-0.3,0.1-0.7,0.1-1,0.2c-0.3,0.1-0.7,0.1-1,0.1s-0.6,0-0.9,0
			c-1.1,0-2.1-0.2-2.8-0.6s-1.3-0.9-1.7-1.5c-0.4-0.6-0.7-1.4-0.8-2.2C127.1,125.7,127,124.8,127,123.9z"/>
		<path fill="#3EB396" d="M138.8,117.4c0-0.3,0.1-0.4,0.4-0.4h7.6c0.3,0,0.4,0.1,0.4,0.4v1.3c0,0.2-0.1,0.4-0.4,0.4h-5.6v3.6h5
			c0.3,0,0.4,0.1,0.4,0.4v1.3c0,0.2-0.1,0.4-0.4,0.4h-5v4h5.7c0.2,0,0.4,0.1,0.4,0.4v1.3c0,0.2-0.1,0.4-0.4,0.4h-7.7
			c-0.3,0-0.4-0.1-0.4-0.4V117.4z"/>
		<path fill="#3EB396" d="M151.9,130.2c0,0.1,0,0.2-0.1,0.3c0,0.1-0.1,0.1-0.3,0.1H150c-0.3,0-0.4-0.1-0.4-0.4v-12.9
			c0-0.3,0.1-0.4,0.4-0.4h4.3c0.6,0,1.2,0.1,1.7,0.3c0.5,0.2,1,0.4,1.4,0.8c0.4,0.3,0.7,0.8,0.9,1.3c0.2,0.5,0.3,1.1,0.3,1.8
			c0,0.5-0.1,1-0.2,1.5c-0.1,0.5-0.4,1-0.7,1.4c-0.3,0.4-0.8,0.8-1.4,1c-0.6,0.3-1.3,0.4-2.2,0.4h-2.4V130.2z M156.3,121.1
			c0-0.7-0.2-1.3-0.6-1.6s-1-0.5-1.7-0.5h-2.1v4.4h2.2c0.8,0,1.4-0.2,1.7-0.6C156.1,122.3,156.3,121.8,156.3,121.1z"/>
		<path fill="#3EB396" d="M168.7,119h-3.3v11.2c0,0.1,0,0.2-0.1,0.3c0,0.1-0.1,0.1-0.3,0.1h-1.5c-0.3,0-0.4-0.1-0.4-0.4V119h-3.2
			c-0.2,0-0.3,0-0.3-0.1c-0.1-0.1-0.1-0.2-0.1-0.3v-1.3c0-0.1,0-0.2,0.1-0.3c0.1-0.1,0.2-0.1,0.3-0.1h8.8c0.3,0,0.4,0.1,0.4,0.4v1.3
			C169.1,118.9,169,119,168.7,119z"/>
		<path fill="#3EB396" d="M170.8,117.4c0-0.3,0.1-0.4,0.4-0.4h1.5c0.3,0,0.4,0.1,0.4,0.4v9.2h0l0.9-1.5l4.8-7.7
			c0.1-0.1,0.2-0.2,0.3-0.3c0.1-0.1,0.2-0.1,0.4-0.1h1.3c0.1,0,0.2,0,0.3,0.1c0.1,0.1,0.1,0.2,0.1,0.3v12.9c0,0.3-0.1,0.4-0.4,0.4
			h-1.5c-0.3,0-0.4-0.1-0.4-0.4v-9.3h0l-5.9,9.3c-0.1,0.1-0.2,0.2-0.3,0.3c-0.1,0.1-0.3,0.1-0.4,0.1h-1.2c-0.3,0-0.4-0.1-0.4-0.4
			V117.4z"/>
		<path fill="#3EB396" d="M189.6,117.4c0-0.3,0.1-0.4,0.4-0.4h1.5c0.2,0,0.3,0,0.3,0.1s0.1,0.2,0.1,0.3v0.3c1.2,0.1,2.1,0.3,2.8,0.7
			c0.7,0.4,1.3,0.9,1.7,1.5c0.4,0.6,0.7,1.2,0.8,1.8c0.1,0.6,0.2,1.3,0.2,1.9c0,0.7-0.1,1.4-0.2,2c-0.2,0.7-0.5,1.3-0.9,1.9
			c-0.4,0.6-1,1-1.7,1.4c-0.7,0.4-1.6,0.6-2.7,0.7v0.5c0,0.1,0,0.2-0.1,0.3c-0.1,0.1-0.2,0.1-0.3,0.1h-1.5c-0.3,0-0.4-0.1-0.4-0.4
			v-0.5c-1.2-0.1-2.2-0.3-2.9-0.7c-0.7-0.4-1.3-0.9-1.7-1.5c-0.4-0.6-0.7-1.2-0.8-1.9s-0.2-1.3-0.2-2c0-0.5,0.1-1.1,0.2-1.7
			c0.2-0.6,0.4-1.3,0.9-1.8c0.4-0.6,1-1.1,1.7-1.5c0.7-0.4,1.7-0.7,2.9-0.8V117.4z M186.4,123.7c0,0.6,0.1,1.1,0.2,1.6
			c0.1,0.5,0.3,0.9,0.6,1.2c0.3,0.3,0.6,0.6,1,0.8c0.4,0.2,0.9,0.4,1.5,0.4v-8.1c-0.6,0.1-1.1,0.2-1.5,0.4c-0.4,0.2-0.8,0.5-1,0.9
			c-0.3,0.4-0.5,0.8-0.6,1.2C186.4,122.7,186.4,123.2,186.4,123.7z M195.2,123.8c0-0.5,0-1-0.1-1.4c-0.1-0.5-0.3-0.9-0.5-1.3
			c-0.2-0.4-0.6-0.7-1-0.9c-0.4-0.2-0.9-0.4-1.6-0.4v8c1.2-0.1,2-0.5,2.5-1.2S195.2,124.9,195.2,123.8z"/>
		<path fill="#3EB396" d="M200.2,117.4c0-0.3,0.1-0.4,0.4-0.4h1.5c0.3,0,0.4,0.1,0.4,0.4v9.2h0l0.9-1.5l4.8-7.7
			c0.1-0.1,0.2-0.2,0.3-0.3c0.1-0.1,0.2-0.1,0.4-0.1h1.3c0.1,0,0.2,0,0.3,0.1c0.1,0.1,0.1,0.2,0.1,0.3v12.9c0,0.3-0.1,0.4-0.4,0.4
			h-1.5c-0.3,0-0.4-0.1-0.4-0.4v-9.3h0l-5.9,9.3c-0.1,0.1-0.2,0.2-0.3,0.3c-0.1,0.1-0.3,0.1-0.4,0.1h-1.2c-0.3,0-0.4-0.1-0.4-0.4
			V117.4z"/>
		<path fill="#3EB396" d="M215.9,128.6h5.2v-11.2c0-0.3,0.1-0.4,0.4-0.4h1.5c0.3,0,0.4,0.1,0.4,0.4v11.1l1,0.1
			c0.2,0,0.3,0.1,0.3,0.2c0,0.1,0.1,0.2,0.1,0.3l-0.2,4c0,0.2-0.1,0.4-0.1,0.5c0,0.1-0.1,0.1-0.3,0.1h-1.2c-0.2,0-0.2,0-0.3-0.1
			c0-0.1-0.1-0.2-0.1-0.4l-0.1-2.6H214c-0.2,0-0.3,0-0.3-0.1c-0.1-0.1-0.1-0.2-0.1-0.3v-12.8c0-0.1,0-0.2,0.1-0.3s0.2-0.1,0.3-0.1
			h1.5c0.2,0,0.4,0.1,0.4,0.4V128.6z"/>
		<path fill="#3EB396" d="M226.5,117.4c0-0.3,0.1-0.4,0.4-0.4h1.5c0.3,0,0.4,0.1,0.4,0.4v9.2h0l0.9-1.5l4.8-7.7
			c0.1-0.1,0.2-0.2,0.3-0.3s0.2-0.1,0.4-0.1h1.3c0.1,0,0.2,0,0.3,0.1s0.1,0.2,0.1,0.3v12.9c0,0.3-0.1,0.4-0.4,0.4h-1.5
			c-0.3,0-0.4-0.1-0.4-0.4v-9.3h0l-5.9,9.3c-0.1,0.1-0.2,0.2-0.3,0.3c-0.1,0.1-0.3,0.1-0.4,0.1h-1.2c-0.3,0-0.4-0.1-0.4-0.4V117.4z"
			/>
		<path fill="#3EB396" d="M242.3,130.2c0,0.1,0,0.2-0.1,0.3c0,0.1-0.1,0.1-0.3,0.1h-1.5c-0.3,0-0.4-0.1-0.4-0.4v-12.9
			c0-0.3,0.1-0.4,0.4-0.4h4.3c0.6,0,1.2,0.1,1.7,0.3c0.5,0.2,1,0.4,1.4,0.8c0.4,0.3,0.7,0.8,0.9,1.3c0.2,0.5,0.3,1.1,0.3,1.8
			c0,0.5-0.1,1-0.2,1.5c-0.1,0.5-0.4,1-0.7,1.4c-0.3,0.4-0.8,0.8-1.4,1c-0.6,0.3-1.3,0.4-2.2,0.4h-2.4V130.2z M246.7,121.1
			c0-0.7-0.2-1.3-0.6-1.6c-0.4-0.3-1-0.5-1.7-0.5h-2.1v4.4h2.2c0.8,0,1.4-0.2,1.7-0.6C246.5,122.3,246.7,121.8,246.7,121.1z"/>
		<path fill="#3EB396" d="M261.9,123.6c0,0.8-0.1,1.6-0.2,2.5c-0.1,0.8-0.4,1.6-0.7,2.3c-0.4,0.7-0.9,1.3-1.7,1.7
			c-0.7,0.5-1.8,0.7-3,0.7c-0.8,0-1.5-0.1-2.1-0.3s-1.1-0.5-1.5-0.8c-0.4-0.4-0.7-0.8-1-1.2c-0.2-0.5-0.4-1-0.5-1.5
			c-0.1-0.5-0.2-1.1-0.2-1.6c0-0.6-0.1-1.1-0.1-1.6c0-0.4,0-0.9,0.1-1.4c0-0.5,0.1-1,0.3-1.5c0.1-0.5,0.3-1,0.6-1.5
			c0.2-0.5,0.6-0.9,1-1.3c0.4-0.4,0.9-0.7,1.5-0.9c0.6-0.2,1.3-0.3,2.1-0.3c1.2,0,2.2,0.2,2.9,0.6c0.7,0.4,1.3,0.9,1.7,1.6
			s0.6,1.4,0.8,2.2S261.9,122.8,261.9,123.6z M259.5,123.8c0-0.8-0.1-1.5-0.2-2.2c-0.1-0.6-0.3-1.1-0.5-1.6c-0.2-0.4-0.6-0.7-1-0.9
			c-0.4-0.2-0.9-0.3-1.6-0.3c-0.6,0-1.1,0.1-1.5,0.3c-0.4,0.2-0.7,0.6-0.9,1c-0.2,0.4-0.4,0.9-0.5,1.6s-0.2,1.3-0.2,2.1
			c0,0.8,0,1.5,0.1,2.1s0.3,1.1,0.5,1.6c0.2,0.4,0.5,0.8,0.9,1c0.4,0.2,0.9,0.3,1.5,0.3c0.6,0,1.1-0.1,1.6-0.3c0.4-0.2,0.7-0.5,1-1
			c0.2-0.4,0.4-0.9,0.5-1.6S259.5,124.6,259.5,123.8z"/>
		<path fill="#3EB396" d="M274.2,126.7c0,0.6-0.1,1.1-0.3,1.6c-0.2,0.5-0.5,0.9-0.9,1.2c-0.4,0.3-0.8,0.6-1.3,0.8
			c-0.5,0.2-1,0.3-1.5,0.3H265c-0.2,0-0.3,0-0.4-0.1s-0.1-0.2-0.1-0.3v-12.8c0-0.3,0.1-0.4,0.4-0.4h4.7c1.4,0,2.4,0.3,3.1,1
			c0.7,0.7,1,1.5,1,2.6c0,0.2,0,0.4-0.1,0.7s-0.1,0.5-0.3,0.8c-0.1,0.3-0.3,0.5-0.5,0.8s-0.5,0.4-0.8,0.6l0,0c0.4,0.1,0.7,0.3,1,0.6
			c0.3,0.3,0.5,0.5,0.6,0.9c0.2,0.3,0.3,0.6,0.3,0.9S274.2,126.5,274.2,126.7z M271.3,120.8c0-0.5-0.2-0.9-0.5-1.3s-0.8-0.5-1.6-0.5
			h-2.4v3.6h2.7c0.5,0,1-0.2,1.3-0.5C271.2,121.7,271.3,121.3,271.3,120.8z M271.7,126.6c0-0.5-0.2-1-0.5-1.4
			c-0.3-0.4-0.9-0.6-1.6-0.6h-2.8v4.1h2.8c0.4,0,0.8-0.1,1-0.2c0.3-0.1,0.5-0.3,0.7-0.4s0.3-0.4,0.3-0.6
			C271.7,127.1,271.7,126.9,271.7,126.6z"/>
		<path fill="#3EB396" d="M277.7,130.2c-0.1,0.2-0.1,0.3-0.2,0.3c-0.1,0.1-0.2,0.1-0.3,0.1h-1.6c-0.2,0-0.3-0.1-0.2-0.4l4.1-12.8
			c0.1-0.2,0.1-0.3,0.2-0.3c0.1-0.1,0.2-0.1,0.4-0.1h1.8c0.2,0,0.3,0,0.4,0.1s0.1,0.2,0.2,0.3l4.2,12.8c0.1,0.2,0,0.4-0.2,0.4h-1.8
			c-0.2,0-0.3,0-0.3-0.1s-0.1-0.2-0.2-0.3l-0.9-3h-4.6L277.7,130.2z M281.9,122.4l-0.8-3h-0.1l-0.8,2.9l-0.9,3h3.5L281.9,122.4z"/>
		<path fill="#3EB396" d="M295.9,117.4c0-0.3,0.1-0.4,0.4-0.4h1.5c0.2,0,0.2,0,0.3,0.1c0,0.1,0.1,0.2,0.1,0.3v12.8
			c0,0.1,0,0.2-0.1,0.3c0,0.1-0.1,0.1-0.3,0.1h-1.5c-0.3,0-0.4-0.1-0.4-0.4v-5.7h-5.2v5.7c0,0.1,0,0.2-0.1,0.3
			c0,0.1-0.1,0.1-0.3,0.1h-1.5c-0.3,0-0.4-0.1-0.4-0.4v-12.8c0-0.3,0.1-0.4,0.4-0.4h1.5c0.2,0,0.3,0,0.3,0.1c0,0.1,0.1,0.2,0.1,0.3
			v5.1h5.2V117.4z"/>
		<path fill="#3EB396" d="M308.6,117.4c0-0.3,0.1-0.4,0.4-0.4h1.5c0.2,0,0.2,0,0.3,0.1c0,0.1,0.1,0.2,0.1,0.3v12.8
			c0,0.1,0,0.2-0.1,0.3c0,0.1-0.1,0.1-0.3,0.1H309c-0.3,0-0.4-0.1-0.4-0.4v-5.7h-5.2v5.7c0,0.1,0,0.2-0.1,0.3c0,0.1-0.1,0.1-0.3,0.1
			h-1.5c-0.3,0-0.4-0.1-0.4-0.4v-12.8c0-0.3,0.1-0.4,0.4-0.4h1.5c0.2,0,0.3,0,0.3,0.1c0,0.1,0.1,0.2,0.1,0.3v5.1h5.2V117.4z"/>
		<path fill="#3EB396" d="M313.8,117.4c0-0.3,0.1-0.4,0.4-0.4h1.5c0.3,0,0.4,0.1,0.4,0.4v5h2.7c0.9,0,1.6,0.1,2.2,0.4
			c0.6,0.3,1,0.6,1.4,1c0.3,0.4,0.6,0.8,0.7,1.3c0.1,0.5,0.2,1,0.2,1.4c0,0.7-0.1,1.3-0.4,1.8c-0.2,0.5-0.6,0.9-1,1.3
			c-0.4,0.3-0.9,0.6-1.4,0.7c-0.5,0.2-1.1,0.2-1.7,0.2h-4.6c-0.3,0-0.4-0.1-0.4-0.4V117.4z M320.9,126.6c0-0.7-0.2-1.2-0.5-1.6
			s-0.9-0.6-1.7-0.6h-2.6v4.3h2.5c0.7,0,1.3-0.2,1.7-0.5C320.7,127.8,320.9,127.3,320.9,126.6z M324.7,117.4c0-0.3,0.1-0.4,0.4-0.4
			h1.5c0.3,0,0.4,0.1,0.4,0.4v12.8c0,0.3-0.1,0.4-0.4,0.4h-1.5c-0.3,0-0.4-0.1-0.4-0.4V117.4z"/>
		<path fill="#3EB396" d="M335.4,123.6l4,6.6c0.1,0.1,0.1,0.2,0.1,0.3c0,0.1-0.1,0.1-0.3,0.1h-1.8c-0.2,0-0.3,0-0.3-0.1
			c-0.1,0-0.2-0.1-0.2-0.3l-1.5-2.6l-1.2-2.2l-1.2,2.1l-1.5,2.6c-0.1,0.1-0.1,0.2-0.2,0.3s-0.2,0.1-0.4,0.1h-1.8
			c-0.1,0-0.2,0-0.2-0.1c0-0.1,0-0.2,0.1-0.3l3.9-6.5l-3.7-6.2c-0.1-0.1-0.1-0.2-0.1-0.3c0-0.1,0.1-0.1,0.3-0.1h1.8
			c0.2,0,0.3,0,0.3,0.1c0.1,0.1,0.1,0.1,0.2,0.3l1.3,2.4l1.1,2l1.1-2.1l1.3-2.3c0.1-0.1,0.1-0.2,0.2-0.3s0.2-0.1,0.3-0.1h1.8
			c0.2,0,0.3,0,0.3,0.1c0,0.1,0,0.2-0.1,0.3L335.4,123.6z"/>
		<path fill="#3EB396" d="M353.4,125.7l1.2-2.7l2.8-5.7c0.1-0.1,0.1-0.2,0.2-0.3c0.1-0.1,0.2-0.1,0.4-0.1h1.2c0.1,0,0.2,0,0.3,0.1
			c0,0.1,0.1,0.2,0.1,0.3v12.9c0,0.1,0,0.2-0.1,0.3c0,0.1-0.1,0.1-0.3,0.1h-1.5c-0.3,0-0.4-0.1-0.4-0.4V122h-0.1l-0.7,1.6l-2.3,4.6
			c-0.1,0.1-0.1,0.2-0.2,0.3c-0.1,0.1-0.2,0.1-0.4,0.1H353c-0.2,0-0.3,0-0.4-0.1s-0.2-0.1-0.2-0.3l-2.3-4.8l-0.7-1.4h0v8.2
			c0,0.1,0,0.2-0.1,0.3c0,0.1-0.1,0.1-0.3,0.1h-1.5c-0.3,0-0.4-0.1-0.4-0.4v-12.9c0-0.2,0.1-0.4,0.4-0.4h1.3c0.2,0,0.4,0,0.4,0.1
			c0.1,0.1,0.2,0.2,0.2,0.3l2.8,5.7L353.4,125.7L353.4,125.7z"/>
		<path fill="#3EB396" d="M373.4,123.6c0,0.8-0.1,1.6-0.2,2.5c-0.1,0.8-0.4,1.6-0.7,2.3c-0.4,0.7-0.9,1.3-1.7,1.7
			c-0.7,0.5-1.8,0.7-3,0.7c-0.8,0-1.5-0.1-2.1-0.3s-1.1-0.5-1.5-0.8c-0.4-0.4-0.7-0.8-1-1.2c-0.2-0.5-0.4-1-0.5-1.5
			c-0.1-0.5-0.2-1.1-0.2-1.6c0-0.6-0.1-1.1-0.1-1.6c0-0.4,0-0.9,0.1-1.4c0-0.5,0.1-1,0.3-1.5c0.1-0.5,0.3-1,0.6-1.5
			c0.2-0.5,0.6-0.9,1-1.3c0.4-0.4,0.9-0.7,1.5-0.9c0.6-0.2,1.3-0.3,2.1-0.3c1.2,0,2.2,0.2,2.9,0.6c0.7,0.4,1.3,0.9,1.7,1.6
			s0.6,1.4,0.8,2.2S373.4,122.8,373.4,123.6z M371.1,123.8c0-0.8-0.1-1.5-0.2-2.2c-0.1-0.6-0.3-1.1-0.5-1.6c-0.2-0.4-0.6-0.7-1-0.9
			c-0.4-0.2-0.9-0.3-1.6-0.3c-0.6,0-1.1,0.1-1.5,0.3c-0.4,0.2-0.7,0.6-0.9,1c-0.2,0.4-0.4,0.9-0.5,1.6s-0.2,1.3-0.2,2.1
			c0,0.8,0,1.5,0.1,2.1s0.3,1.1,0.5,1.6c0.2,0.4,0.5,0.8,0.9,1c0.4,0.2,0.9,0.3,1.5,0.3c0.6,0,1.1-0.1,1.6-0.3c0.4-0.2,0.7-0.5,1-1
			c0.2-0.4,0.4-0.9,0.5-1.6S371.1,124.6,371.1,123.8z"/>
		<path fill="#3EB396" d="M383.6,117.4c0-0.3,0.1-0.4,0.4-0.4h1.5c0.2,0,0.2,0,0.3,0.1c0,0.1,0.1,0.2,0.1,0.3v12.8
			c0,0.1,0,0.2-0.1,0.3c0,0.1-0.1,0.1-0.3,0.1H384c-0.3,0-0.4-0.1-0.4-0.4v-5.7h-5.2v5.7c0,0.1,0,0.2-0.1,0.3c0,0.1-0.1,0.1-0.3,0.1
			h-1.5c-0.3,0-0.4-0.1-0.4-0.4v-12.8c0-0.3,0.1-0.4,0.4-0.4h1.5c0.2,0,0.3,0,0.3,0.1c0,0.1,0.1,0.2,0.1,0.3v5.1h5.2V117.4z"/>
		<path fill="#3EB396" d="M396.8,119h-3.3v11.2c0,0.1,0,0.2-0.1,0.3c0,0.1-0.1,0.1-0.3,0.1h-1.5c-0.3,0-0.4-0.1-0.4-0.4V119h-3.2
			c-0.2,0-0.3,0-0.3-0.1c-0.1-0.1-0.1-0.2-0.1-0.3v-1.3c0-0.1,0-0.2,0.1-0.3c0.1-0.1,0.2-0.1,0.3-0.1h8.8c0.3,0,0.4,0.1,0.4,0.4v1.3
			C397.3,118.9,397.1,119,396.8,119z"/>
		<path fill="#3EB396" d="M399.6,130.2c-0.1,0.2-0.1,0.3-0.2,0.3c-0.1,0.1-0.2,0.1-0.3,0.1h-1.6c-0.2,0-0.3-0.1-0.2-0.4l4.1-12.8
			c0.1-0.2,0.1-0.3,0.2-0.3c0.1-0.1,0.2-0.1,0.4-0.1h1.8c0.2,0,0.3,0,0.4,0.1s0.1,0.2,0.2,0.3l4.2,12.8c0.1,0.2,0,0.4-0.2,0.4h-1.8
			c-0.2,0-0.3,0-0.3-0.1s-0.1-0.2-0.2-0.3l-0.9-3h-4.6L399.6,130.2z M403.7,122.4l-0.8-3h-0.1l-0.8,2.9l-0.9,3h3.5L403.7,122.4z"/>
		<path fill="#3EB396" d="M422.7,126.5c-0.1-0.4-0.3-0.7-0.4-0.9c-0.2-0.2-0.3-0.4-0.5-0.6c-0.2-0.1-0.4-0.2-0.6-0.3
			c-0.2,0-0.4-0.1-0.7-0.1H419v5.6c0,0.1,0,0.2-0.1,0.3c0,0.1-0.1,0.1-0.3,0.1h-1.5c-0.3,0-0.4-0.1-0.4-0.4v-5.6h-1.4
			c-0.2,0-0.5,0-0.7,0.1s-0.4,0.1-0.6,0.3c-0.2,0.1-0.4,0.3-0.5,0.6c-0.2,0.2-0.3,0.6-0.4,0.9l-1.1,3.7c-0.1,0.2-0.1,0.3-0.2,0.4
			s-0.2,0.1-0.5,0.1h-1.4c-0.2,0-0.3,0-0.4-0.1c0-0.1,0-0.2,0-0.4l1.2-3.9c0.2-0.7,0.4-1.2,0.7-1.7c0.3-0.5,0.7-0.8,1.2-1
			c-0.4-0.2-0.8-0.4-1.1-0.9c-0.3-0.4-0.6-1-0.8-1.7l-1.1-3.5c-0.1-0.2-0.1-0.3,0-0.4s0.2-0.1,0.4-0.1h1.3c0.2,0,0.4,0,0.5,0.1
			c0.1,0.1,0.2,0.2,0.2,0.4l1.1,3.4c0.1,0.4,0.3,0.7,0.4,0.9c0.2,0.2,0.4,0.4,0.5,0.5s0.4,0.2,0.6,0.2c0.2,0,0.4,0.1,0.6,0.1h1.4
			v-5.2c0-0.3,0.1-0.4,0.4-0.4h1.5c0.1,0,0.2,0,0.3,0.1c0,0.1,0.1,0.2,0.1,0.3v5.2h1.4c0.2,0,0.4,0,0.6-0.1c0.2,0,0.4-0.1,0.6-0.2
			s0.4-0.3,0.6-0.5c0.2-0.2,0.3-0.5,0.4-0.9l1-3.4c0.1-0.2,0.1-0.3,0.2-0.4c0.1-0.1,0.2-0.1,0.4-0.1h1.3c0.2,0,0.3,0,0.4,0.1
			s0,0.2,0,0.4L425,121c-0.2,0.7-0.5,1.2-0.8,1.7c-0.3,0.4-0.7,0.7-1.1,0.9c0.5,0.2,0.9,0.5,1.2,1c0.3,0.5,0.5,1,0.7,1.7l1.2,3.9
			c0.1,0.2,0.1,0.3,0,0.4c0,0.1-0.2,0.1-0.4,0.1h-1.4c-0.2,0-0.4,0-0.4-0.1c-0.1-0.1-0.2-0.2-0.2-0.4L422.7,126.5z"/>
		<path fill="#3EB396" d="M435.9,117.4c0-0.3,0.1-0.4,0.4-0.4h1.5c0.2,0,0.2,0,0.3,0.1c0,0.1,0.1,0.2,0.1,0.3v12.8
			c0,0.1,0,0.2-0.1,0.3c0,0.1-0.1,0.1-0.3,0.1h-1.5c-0.3,0-0.4-0.1-0.4-0.4v-5.7h-5.2v5.7c0,0.1,0,0.2-0.1,0.3
			c0,0.1-0.1,0.1-0.3,0.1h-1.5c-0.3,0-0.4-0.1-0.4-0.4v-12.8c0-0.3,0.1-0.4,0.4-0.4h1.5c0.2,0,0.3,0,0.3,0.1c0,0.1,0.1,0.2,0.1,0.3
			v5.1h5.2V117.4z"/>
		<path fill="#3EB396" d="M441.1,117.4c0-0.3,0.1-0.4,0.4-0.4h1.5c0.3,0,0.4,0.1,0.4,0.4v9.2h0l0.9-1.5l4.8-7.7
			c0.1-0.1,0.2-0.2,0.3-0.3s0.2-0.1,0.4-0.1h1.3c0.1,0,0.2,0,0.3,0.1c0.1,0.1,0.1,0.2,0.1,0.3v12.9c0,0.3-0.1,0.4-0.4,0.4h-1.5
			c-0.3,0-0.4-0.1-0.4-0.4v-9.3h0l-5.9,9.3c-0.1,0.1-0.2,0.2-0.3,0.3c-0.1,0.1-0.3,0.1-0.4,0.1h-1.2c-0.3,0-0.4-0.1-0.4-0.4V117.4z"
			/>
		<path fill="#3EB396" d="M460.8,126.5c-0.1-0.4-0.3-0.7-0.4-0.9c-0.2-0.2-0.3-0.4-0.5-0.6c-0.2-0.1-0.4-0.2-0.6-0.3
			s-0.4-0.1-0.7-0.1h-1.8v5.6c0,0.1,0,0.2-0.1,0.3c0,0.1-0.1,0.1-0.3,0.1h-1.5c-0.3,0-0.4-0.1-0.4-0.4v-12.8c0-0.3,0.1-0.4,0.4-0.4
			h1.5c0.2,0,0.3,0,0.3,0.1s0.1,0.2,0.1,0.3v5.2h1.8c0.2,0,0.4,0,0.6-0.1c0.2,0,0.4-0.1,0.6-0.2c0.2-0.1,0.4-0.3,0.5-0.5
			c0.2-0.2,0.3-0.5,0.4-0.9l1.1-3.4c0.1-0.2,0.1-0.3,0.2-0.4c0.1-0.1,0.2-0.1,0.5-0.1h1.3c0.2,0,0.3,0,0.4,0.1s0,0.2,0,0.4l-1.1,3.5
			c-0.2,0.7-0.5,1.2-0.8,1.7c-0.3,0.4-0.7,0.7-1.1,0.9c0.5,0.2,0.9,0.5,1.2,1c0.3,0.5,0.5,1,0.7,1.7l1.2,3.9c0.1,0.2,0.1,0.3,0,0.4
			c0,0.1-0.2,0.1-0.4,0.1h-1.4c-0.2,0-0.4,0-0.5-0.1s-0.2-0.2-0.2-0.4L460.8,126.5z"/>
		<path fill="#3EB396" d="M477.3,123.6c0,0.8-0.1,1.6-0.2,2.5c-0.1,0.8-0.4,1.6-0.7,2.3c-0.4,0.7-0.9,1.3-1.7,1.7
			c-0.7,0.5-1.8,0.7-3,0.7c-0.8,0-1.5-0.1-2.1-0.3s-1.1-0.5-1.5-0.8c-0.4-0.4-0.7-0.8-1-1.2c-0.2-0.5-0.4-1-0.5-1.5
			c-0.1-0.5-0.2-1.1-0.2-1.6c0-0.6-0.1-1.1-0.1-1.6c0-0.4,0-0.9,0.1-1.4c0-0.5,0.1-1,0.3-1.5c0.1-0.5,0.3-1,0.6-1.5
			c0.2-0.5,0.6-0.9,1-1.3c0.4-0.4,0.9-0.7,1.5-0.9c0.6-0.2,1.3-0.3,2.1-0.3c1.2,0,2.2,0.2,2.9,0.6c0.7,0.4,1.3,0.9,1.7,1.6
			s0.6,1.4,0.8,2.2S477.3,122.8,477.3,123.6z M475,123.8c0-0.8-0.1-1.5-0.2-2.2c-0.1-0.6-0.3-1.1-0.5-1.6c-0.2-0.4-0.6-0.7-1-0.9
			c-0.4-0.2-0.9-0.3-1.6-0.3c-0.6,0-1.1,0.1-1.5,0.3c-0.4,0.2-0.7,0.6-0.9,1c-0.2,0.4-0.4,0.9-0.5,1.6s-0.2,1.3-0.2,2.1
			c0,0.8,0,1.5,0.1,2.1s0.3,1.1,0.5,1.6c0.2,0.4,0.5,0.8,0.9,1c0.4,0.2,0.9,0.3,1.5,0.3c0.6,0,1.1-0.1,1.6-0.3c0.4-0.2,0.7-0.5,1-1
			c0.2-0.4,0.4-0.9,0.5-1.6S475,124.6,475,123.8z"/>
		<path fill="#3EB396" d="M489.6,126.7c0,0.6-0.1,1.1-0.3,1.6c-0.2,0.5-0.5,0.9-0.9,1.2c-0.4,0.3-0.8,0.6-1.3,0.8
			c-0.5,0.2-1,0.3-1.5,0.3h-5.2c-0.2,0-0.3,0-0.4-0.1s-0.1-0.2-0.1-0.3v-12.8c0-0.3,0.1-0.4,0.4-0.4h4.7c1.4,0,2.4,0.3,3.1,1
			c0.7,0.7,1,1.5,1,2.6c0,0.2,0,0.4-0.1,0.7s-0.1,0.5-0.3,0.8c-0.1,0.3-0.3,0.5-0.5,0.8s-0.5,0.4-0.8,0.6l0,0c0.4,0.1,0.7,0.3,1,0.6
			c0.3,0.3,0.5,0.5,0.6,0.9c0.2,0.3,0.3,0.6,0.3,0.9S489.6,126.5,489.6,126.7z M486.8,120.8c0-0.5-0.2-0.9-0.5-1.3s-0.8-0.5-1.6-0.5
			h-2.4v3.6h2.7c0.5,0,1-0.2,1.3-0.5C486.6,121.7,486.8,121.3,486.8,120.8z M487.2,126.6c0-0.5-0.2-1-0.5-1.4
			c-0.3-0.4-0.9-0.6-1.6-0.6h-2.8v4.1h2.8c0.4,0,0.8-0.1,1-0.2c0.3-0.1,0.5-0.3,0.7-0.4s0.3-0.4,0.3-0.6
			C487.2,127.1,487.2,126.9,487.2,126.6z"/>
	</g>
	<g>
		<defs>
			<rect id="SVGID_1_" x="503.2" y="112.6" width="20.2" height="20.2"/>
		</defs>
		<clipPath id="SVGID_2_">
			<use xlink:href="#SVGID_1_"  overflow="visible"/>
		</clipPath>
		<path clip-path="url(#SVGID_2_)" fill="#DF1864" d="M513.4,112.6c-5.6,0-10.1,4.5-10.1,10.1c0,2.1,0.7,4.1,1.8,5.7l3.4-3.4
			c-0.9-2.1-0.5-4.7,1.3-6.4c1.6-1.6,3.8-2.1,5.8-1.5l-2.9,2.9l0.2,3l0.8,0.8l3,0.2l2.9-2.9c0.6,2,0.1,4.2-1.5,5.8
			c-1.7,1.7-4.3,2.1-6.4,1.3l-3.3,3.3c1.5,0.9,3.3,1.4,5.1,1.4c5.6,0,10.1-4.5,10.1-10.1C523.5,117.1,518.9,112.6,513.4,112.6"/>
	</g>
</g>
</svg>
