<?xml version="1.0" encoding="utf-8"?>
<!-- Generator: Adobe Illustrator 17.1.0, SVG Export Plug-In . SVG Version: 6.00 Build 0)  -->
<!DOCTYPE svg PUBLIC "-//W3C//DTD SVG 1.1//EN" "http://www.w3.org/Graphics/SVG/1.1/DTD/svg11.dtd">
<svg version="1.1" xmlns="http://www.w3.org/2000/svg" xmlns:xlink="http://www.w3.org/1999/xlink" x="0px" y="0px"
	 viewBox="0 0 431.2 166.3" enable-background="new 0 0 431.2 166.3" xml:space="preserve">
<g id="Layer_1">
</g>
<g id="Layer_2">
	<g>
		<path fill="#3EB396" d="M20.3,4.1C14.7,7,9.1,10,4.3,14.9c-4.4,4.5-5.6,12.2-2.9,18c2.7,5.6,6.5,10.6,11,15.4
			C9.3,32.6,12.6,16.7,20.3,4.1z"/>
		<path fill="#DF1764" d="M15.7,51.2c5.5,3.5,10.9,6.8,17.2,8.3c6.9,1.6,13.4-1.3,17.5-6.8c3.4-5.3,5.6-10.9,7.5-16.8
			C45.9,46,31.9,51.3,15.7,51.2z"/>
		<path fill="#505150" d="M56.8,8.8c-2.6-5-7.9-8.2-13.3-8.7C37-0.2,30.9,0.6,25.1,2c13.7,4.4,27.3,15.8,34.3,28.9
			C59.7,23.3,60,15.2,56.8,8.8z"/>
	</g>
	<g>
		<path d="M176.5,30.9v24.4h-7V30.9h-16.1c0,0,0,58.3,0,59.1c0.8,0,16.1,0,16.1,0V65.5h6.9l0,24.5c0,0,15.3,0,16.1,0
			c0-0.8,0-59.1,0-59.1H176.5z"/>
		<path d="M208.2,30.9c-5.1,0-8.6,4.4-8.6,9.7V90h16c0-0.8,0-24.5,0-24.5h6.5V90l15.9,0V30.9C238,30.9,209.9,30.9,208.2,30.9z
			 M222.1,55.3h-6.5c0,0,0-11.6,0-12c0-2.2,0.8-3,2.8-3c0.2,0,3.7,0,3.7,0L222.1,55.3z"/>
		<path d="M104.4,60.1c3.7-0.4,8-4.3,8-9.5c0-2.7,0-10,0-10c-0.1-5.4-4.1-9.7-8.3-9.7c-2.9,0-30.5,0-30.5,0V90h15.9V65.5
			c0,0,3.9,0,4,0c1.9,0,2.8,0.9,2.8,3.1V90h16.1c0-0.2,0-18.6,0-20.3C112.4,64.5,108.2,60.5,104.4,60.1z M96.3,52.3
			c0.1,1.8-0.7,2.8-2,3l-4.7,0v-15c0,0,3.6,0,4,0c2,0,2.8,1,2.8,3L96.3,52.3z"/>
		<path d="M135.5,42.3h10.9V30.9l-27.1,0c0,0,0,58.3,0,59.1c0.8,0,27.1,0,27.1,0V78.6l-11,0V65.5h9.3V55.3h-9.3L135.5,42.3z"/>
		<path d="M282.4,84.1c0.9-2.2,1.1-4.4,1.1-7.1c0-0.7,0-46,0-46h-15.7c0,0,0,45.2,0,45.6c0,1.3-0.8,3.3-3.5,3.3c-0.1,0-0.1,0-0.1,0
			c-2.7,0-3.5-2.1-3.5-3.3c0-0.4,0-45.6,0-45.6h-15.7c0,0,0,45.4,0,46c0,2.9,0.2,5,1.1,7.1c1.2,2.7,3.9,4.9,6.7,5.6
			c1.1,0.3,2.6,0.3,4.3,0.3h14.4c1.7,0,3.1-0.1,4.3-0.3C278.6,88.9,281.2,86.8,282.4,84.1z"/>
	</g>
	<g>
		<path d="M122.6,128.2c-0.2-0.5-0.4-0.9-0.6-1.2c-0.2-0.3-0.4-0.6-0.7-0.7c-0.2-0.2-0.5-0.3-0.8-0.4c-0.3-0.1-0.6-0.1-0.9-0.1h-2.4
			v7.3c0,0.1,0,0.3-0.1,0.4c-0.1,0.1-0.2,0.1-0.4,0.1h-2c-0.4,0-0.5-0.2-0.5-0.5v-16.9c0-0.4,0.2-0.5,0.5-0.5h2c0.2,0,0.3,0,0.4,0.1
			c0.1,0.1,0.1,0.2,0.1,0.4v6.9h2.3c0.3,0,0.5,0,0.8-0.1c0.3,0,0.5-0.1,0.8-0.3s0.5-0.4,0.7-0.7c0.2-0.3,0.4-0.7,0.6-1.2l1.4-4.4
			c0.1-0.3,0.2-0.4,0.3-0.5c0.1-0.1,0.3-0.1,0.6-0.1h1.7c0.3,0,0.5,0.1,0.5,0.2c0.1,0.1,0,0.3,0,0.5l-1.4,4.6
			c-0.3,0.9-0.6,1.6-1,2.2s-0.9,1-1.4,1.2c0.7,0.2,1.2,0.7,1.6,1.3c0.4,0.6,0.7,1.3,0.9,2.2l1.6,5.1c0.1,0.2,0.1,0.4,0,0.5
			c-0.1,0.1-0.2,0.2-0.5,0.2h-1.9c-0.3,0-0.5,0-0.6-0.1s-0.2-0.3-0.3-0.5L122.6,128.2z"/>
		<path d="M140.8,120.5c0.4,0,0.6,0.2,0.6,0.6v12.1c0,0.2,0,0.3-0.1,0.4c-0.1,0.1-0.2,0.1-0.5,0.1h-1.8c-0.2,0-0.4,0-0.4-0.1
			s-0.1-0.2-0.1-0.4V123h-3.9l-0.6,6.4c-0.1,0.6-0.2,1.2-0.3,1.8s-0.4,1-0.7,1.5s-0.8,0.7-1.4,1c-0.6,0.2-1.4,0.4-2.3,0.4
			c-0.3,0-0.4,0-0.5-0.1c-0.1-0.1-0.1-0.2-0.1-0.4l-0.1-1.2c0-0.2,0-0.3,0.1-0.4c0.1-0.1,0.2-0.1,0.4-0.2c0.4-0.1,0.8-0.2,1-0.3
			s0.5-0.3,0.7-0.5c0.2-0.2,0.3-0.6,0.4-1c0.1-0.4,0.2-0.9,0.3-1.6l0.6-6.3c0.1-0.6,0.2-1,0.5-1.2c0.3-0.2,0.7-0.3,1.4-0.3H140.8z"
			/>
		<path d="M149.9,129.9c0.2-0.6,0.4-1.1,0.6-1.6c0.2-0.5,0.3-0.9,0.4-1.3c0.1-0.4,0.3-0.8,0.4-1.2l1.7-5c0.1-0.2,0.1-0.3,0.2-0.4
			c0.1-0.1,0.2-0.1,0.4-0.1h2c0.2,0,0.3,0.1,0.4,0.2c0,0.1,0,0.2-0.1,0.4l-6.3,17.2c-0.1,0.2-0.2,0.3-0.2,0.4
			c-0.1,0.1-0.3,0.1-0.5,0.1H147c-0.2,0-0.3-0.1-0.4-0.2c0-0.1,0-0.2,0-0.4l1.7-4.6l-4.7-12.6c-0.1-0.1-0.1-0.3,0-0.4
			c0-0.1,0.1-0.2,0.3-0.2h2.1c0.2,0,0.3,0,0.4,0.1c0.1,0,0.1,0.2,0.2,0.4l1.8,5l1.4,4H149.9z"/>
		<path d="M157.9,127.1c0-1.3,0-2.6,0.1-3.8c0.1-1.2,0.3-2.3,0.6-3.3c0.3-0.8,0.7-1.6,1.2-2.3c0.5-0.7,1.2-1.2,2-1.7
			c0.4-0.2,0.8-0.4,1.2-0.5c0.5-0.2,1-0.3,1.5-0.4c0.5-0.1,1-0.3,1.6-0.4c0.5-0.1,1-0.2,1.5-0.3c0.2,0,0.3,0,0.4,0
			c0.1,0,0.2,0.2,0.2,0.4l0.3,1.1c0,0.1,0.1,0.3,0.1,0.5c0,0.2-0.1,0.3-0.3,0.4c-0.5,0.1-0.9,0.2-1.3,0.3s-0.8,0.2-1.2,0.3
			c-0.9,0.2-1.6,0.5-2.2,0.7c-0.6,0.3-1.1,0.6-1.4,1c-0.4,0.4-0.6,0.8-0.8,1.4c-0.2,0.5-0.3,1.2-0.4,2l0,0c0.4-0.5,1-0.8,1.6-1
			c0.6-0.2,1.3-0.3,2-0.3c1,0,1.8,0.2,2.5,0.5c0.7,0.3,1.2,0.8,1.6,1.4c0.4,0.6,0.7,1.3,0.9,2.1s0.3,1.6,0.3,2.5
			c0,0.8-0.1,1.5-0.2,2.3c-0.1,0.8-0.4,1.5-0.8,2.1c-0.4,0.6-1,1.1-1.8,1.5c-0.8,0.4-1.8,0.6-3.1,0.6s-2.3-0.2-3.1-0.6
			s-1.3-0.9-1.8-1.6c-0.4-0.6-0.7-1.4-0.8-2.2C158,128.8,157.9,128,157.9,127.1z M164,123.5c-0.7,0-1.2,0.1-1.6,0.4
			c-0.4,0.3-0.7,0.6-0.9,1s-0.4,0.8-0.4,1.3c-0.1,0.5-0.1,1-0.1,1.4s0,0.9,0.1,1.4c0.1,0.4,0.2,0.8,0.4,1.2c0.2,0.3,0.5,0.6,0.9,0.8
			c0.4,0.2,0.9,0.3,1.5,0.3c0.7,0,1.2-0.1,1.5-0.3c0.4-0.2,0.7-0.5,0.9-0.9c0.2-0.4,0.3-0.8,0.4-1.2c0.1-0.5,0.1-0.9,0.1-1.4
			c0-0.5,0-1-0.1-1.5c-0.1-0.5-0.2-0.9-0.4-1.3c-0.2-0.4-0.5-0.6-0.8-0.9C165,123.6,164.6,123.5,164,123.5z"/>
		<path d="M190.4,132.4c0.1,0.2,0.1,0.4,0,0.5c-0.1,0.1-0.2,0.2-0.5,0.4c-0.5,0.2-1.2,0.4-1.9,0.5c-0.8,0.1-1.5,0.1-2.2,0.1
			c-1.3,0-2.3-0.2-3-0.6s-1.4-0.9-1.8-1.5c-0.4-0.6-0.7-1.4-0.8-2.2c-0.1-0.8-0.2-1.7-0.2-2.6c0-0.8,0.1-1.7,0.2-2.5
			c0.1-0.8,0.4-1.5,0.8-2.2c0.4-0.6,1-1.2,1.8-1.6c0.8-0.4,1.8-0.6,3-0.6c0.3,0,0.6,0,1,0c0.4,0,0.7,0.1,1.1,0.1
			c0.4,0.1,0.7,0.1,1.1,0.2c0.4,0.1,0.7,0.2,1,0.3c0.3,0.1,0.5,0.4,0.4,0.8l-0.2,1.1c-0.1,0.2-0.1,0.3-0.3,0.4s-0.3,0-0.6,0
			c-0.6-0.1-1.1-0.1-1.7-0.2c-0.6-0.1-1.1-0.1-1.6-0.1c-1.1,0-1.9,0.3-2.3,0.9c-0.4,0.6-0.6,1.7-0.6,3.2c0,0.8,0,1.5,0.1,2.1
			c0.1,0.6,0.3,1,0.5,1.3c0.2,0.3,0.5,0.6,0.9,0.7c0.4,0.1,0.8,0.2,1.4,0.2c0.4,0,1,0,1.6-0.1c0.7,0,1.3-0.1,1.8-0.2
			c0.2,0,0.4,0,0.5,0s0.2,0.2,0.2,0.4L190.4,132.4z"/>
		<path d="M195.5,127.9c0,0.7,0.1,1.3,0.2,1.7c0.1,0.4,0.3,0.8,0.6,1.1s0.6,0.4,1,0.6c0.4,0.1,0.9,0.2,1.4,0.2c0.5,0,1.1,0,1.7-0.1
			s1.3-0.1,1.8-0.2c0.3,0,0.4,0,0.5,0c0.1,0,0.2,0.2,0.2,0.4l0.2,0.9c0,0.2,0,0.4,0,0.5c0,0.1-0.2,0.2-0.4,0.4
			c-0.3,0.1-0.6,0.2-0.9,0.3c-0.4,0.1-0.7,0.1-1.1,0.2c-0.4,0.1-0.8,0.1-1.2,0.1c-0.4,0-0.8,0.1-1.1,0.1c-1.3,0-2.3-0.2-3.1-0.6
			c-0.8-0.4-1.4-0.9-1.8-1.5s-0.7-1.4-0.8-2.2c-0.1-0.8-0.2-1.7-0.2-2.6c0-0.6,0.1-1.4,0.2-2.2s0.4-1.6,0.7-2.3
			c0.4-0.7,1-1.3,1.7-1.8s1.8-0.7,3.1-0.7c1.2,0,2.2,0.2,2.9,0.5c0.7,0.4,1.3,0.8,1.7,1.4c0.4,0.6,0.7,1.2,0.9,1.9
			c0.2,0.7,0.2,1.5,0.3,2.2c0,0.5-0.1,0.9-0.2,1.2c-0.2,0.3-0.5,0.5-1.1,0.5H195.5z M198.2,122.6c-0.5,0-0.9,0.1-1.2,0.2
			c-0.3,0.1-0.6,0.4-0.8,0.6c-0.2,0.3-0.4,0.6-0.4,1c-0.1,0.4-0.2,0.9-0.2,1.4h5.3c0-0.4,0-0.8-0.1-1.2c-0.1-0.4-0.2-0.7-0.4-1
			c-0.2-0.3-0.5-0.5-0.8-0.7C199.2,122.7,198.8,122.6,198.2,122.6z"/>
		<path d="M218.4,127c0,1.1-0.1,2.1-0.2,2.9s-0.4,1.6-0.9,2.2c-0.4,0.6-1,1-1.6,1.4s-1.6,0.5-2.6,0.5c-0.5,0-1,0-1.6-0.1
			c-0.6-0.1-1.2-0.2-1.8-0.5l0,0v4.8c0,0.1,0,0.3-0.1,0.4c-0.1,0.1-0.2,0.2-0.4,0.2h-1.9c-0.2,0-0.4,0-0.4-0.1
			c-0.1-0.1-0.1-0.2-0.1-0.4V121c0-0.4,0.2-0.5,0.5-0.5h1.9c0.2,0,0.3,0,0.4,0.1c0.1,0.1,0.1,0.2,0.1,0.4v0.8l0.1,0.1
			c0.2-0.2,0.5-0.3,0.9-0.5c0.3-0.2,0.7-0.4,1.1-0.5s0.8-0.3,1.2-0.4c0.4-0.1,0.8-0.2,1.2-0.2c0.9,0,1.6,0.2,2.2,0.5
			c0.6,0.3,1,0.8,1.4,1.4s0.6,1.3,0.7,2.1C218.3,125,218.4,126,218.4,127z M215.4,127c0-0.9,0-1.6-0.1-2.1c-0.1-0.5-0.2-0.9-0.4-1.2
			c-0.2-0.3-0.4-0.5-0.7-0.6c-0.3-0.1-0.6-0.1-0.9-0.1c-0.3,0-0.6,0-0.9,0.1c-0.3,0.1-0.7,0.2-1,0.3c-0.3,0.1-0.6,0.2-0.9,0.4
			c-0.3,0.1-0.5,0.3-0.7,0.4v6.8c0.6,0.2,1.2,0.3,1.7,0.4c0.5,0.1,1,0.1,1.4,0.1c0.5,0,0.9-0.1,1.2-0.2c0.3-0.1,0.6-0.4,0.8-0.7
			c0.2-0.3,0.4-0.8,0.4-1.4C215.3,128.5,215.4,127.8,215.4,127z"/>
		<path d="M227.1,122.9v10.3c0,0.3-0.2,0.5-0.6,0.5h-1.7c-0.2,0-0.4,0-0.5-0.1c-0.1-0.1-0.2-0.2-0.2-0.4v-10.3h-3.7
			c-0.2,0-0.3,0-0.4-0.1s-0.1-0.2-0.1-0.4V121c0-0.2,0-0.3,0.1-0.4c0.1-0.1,0.2-0.1,0.4-0.1h10.4c0.2,0,0.4,0,0.4,0.1
			c0.1,0.1,0.1,0.2,0.1,0.4v1.3c0,0.2,0,0.4-0.1,0.4s-0.2,0.1-0.4,0.1H227.1z"/>
		<path d="M233.3,121.1c0-0.2,0-0.3,0.1-0.4c0.1-0.1,0.2-0.1,0.4-0.1h1.8c0.3,0,0.4,0.1,0.5,0.2c0.1,0.1,0.1,0.3,0.1,0.4v7.9h0.1
			l3.5-4.8l2.4-3.2c0.1-0.1,0.2-0.3,0.3-0.4s0.3-0.1,0.6-0.1h1.4c0.2,0,0.4,0.1,0.5,0.2c0.1,0.1,0.1,0.2,0.1,0.4v12.1
			c0,0.4-0.2,0.6-0.6,0.6h-1.7c-0.4,0-0.6-0.2-0.6-0.6v-8.3h0c-0.6,0.9-1.3,1.7-1.9,2.6c-0.6,0.8-1.3,1.7-1.9,2.6
			c-0.4,0.5-0.8,1.1-1.2,1.6c-0.4,0.5-0.8,1.1-1.2,1.6c-0.1,0.1-0.2,0.3-0.4,0.4c-0.1,0.1-0.3,0.1-0.6,0.1h-1.2
			c-0.2,0-0.4,0-0.4-0.1s-0.1-0.2-0.1-0.4V121.1z"/>
		<path d="M257.4,138c0,0.1,0,0.2-0.1,0.3c-0.1,0.1-0.2,0.1-0.4,0.1H255c-0.2,0-0.3,0-0.4-0.1c-0.1-0.1-0.1-0.2-0.1-0.4v-4
			c-1.2-0.1-2.2-0.3-3-0.7c-0.8-0.4-1.5-0.9-2-1.5c-0.5-0.6-0.9-1.3-1.1-2.1c-0.2-0.8-0.4-1.6-0.4-2.6c0-0.8,0.1-1.5,0.3-2.3
			c0.2-0.8,0.5-1.5,1-2.2c0.5-0.7,1.2-1.2,2-1.7c0.8-0.4,1.9-0.7,3.3-0.8v-3.9c0-0.4,0.2-0.5,0.5-0.5h1.9c0.3,0,0.5,0.2,0.5,0.5v3.9
			c1.3,0.1,2.4,0.3,3.3,0.7c0.8,0.4,1.5,1,2,1.6c0.5,0.6,0.8,1.4,1,2.1s0.3,1.6,0.3,2.4c0,0.9-0.1,1.8-0.4,2.6
			c-0.2,0.8-0.6,1.5-1.1,2.1c-0.5,0.6-1.2,1.1-2,1.5s-1.8,0.6-3,0.7V138z M254.4,122.8c-0.7,0-1.2,0.1-1.7,0.4
			c-0.4,0.2-0.8,0.5-1.1,0.9c-0.3,0.4-0.5,0.9-0.6,1.4c-0.1,0.5-0.2,1.1-0.2,1.7c0,1.3,0.3,2.3,0.8,3s1.5,1.1,2.7,1.2V122.8z
			 M257.4,131.4c1.2-0.1,2.1-0.5,2.7-1.2c0.6-0.7,0.9-1.7,0.9-3.1c0-0.6-0.1-1.2-0.2-1.7c-0.1-0.5-0.3-1-0.6-1.4
			c-0.3-0.4-0.6-0.7-1.1-0.9c-0.5-0.2-1-0.4-1.7-0.4V131.4z"/>
		<path d="M266.7,121.1c0-0.2,0-0.3,0.1-0.4c0.1-0.1,0.2-0.1,0.4-0.1h1.8c0.3,0,0.4,0.1,0.5,0.2c0.1,0.1,0.1,0.3,0.1,0.4v7.9h0.1
			l3.5-4.8l2.4-3.2c0.1-0.1,0.2-0.3,0.3-0.4s0.3-0.1,0.6-0.1h1.4c0.2,0,0.4,0.1,0.5,0.2c0.1,0.1,0.1,0.2,0.1,0.4v12.1
			c0,0.4-0.2,0.6-0.6,0.6h-1.7c-0.4,0-0.6-0.2-0.6-0.6v-8.3h0c-0.6,0.9-1.3,1.7-1.9,2.6c-0.6,0.8-1.3,1.7-1.9,2.6
			c-0.4,0.5-0.8,1.1-1.2,1.6c-0.4,0.5-0.8,1.1-1.2,1.6c-0.1,0.1-0.2,0.3-0.4,0.4s-0.3,0.1-0.6,0.1h-1.2c-0.2,0-0.4,0-0.4-0.1
			s-0.1-0.2-0.1-0.4V121.1z"/>
		<path d="M289.9,121c0-0.4,0.2-0.6,0.6-0.6h1.7c0.2,0,0.3,0,0.4,0.1c0.1,0.1,0.1,0.2,0.1,0.5l0,10.1l1,0.1c0.2,0,0.4,0.1,0.4,0.2
			c0,0.1,0,0.3,0,0.5l-0.3,4.5c0,0.3-0.1,0.5-0.1,0.5c-0.1,0.1-0.2,0.1-0.3,0.1h-1.5c-0.2,0-0.3,0-0.4-0.1c-0.1-0.1-0.1-0.2-0.1-0.5
			l-0.1-2.8h-9.3c-0.4,0-0.6-0.2-0.6-0.6V121c0-0.4,0.2-0.6,0.6-0.6h1.8c0.4,0,0.6,0.2,0.6,0.6v10.2h5.4V121z"/>
		<path d="M296.6,121.1c0-0.2,0-0.3,0.1-0.4c0.1-0.1,0.2-0.1,0.4-0.1h1.8c0.3,0,0.4,0.1,0.5,0.2c0.1,0.1,0.1,0.3,0.1,0.4v7.9h0.1
			l3.5-4.8l2.4-3.2c0.1-0.1,0.2-0.3,0.3-0.4s0.3-0.1,0.6-0.1h1.4c0.2,0,0.4,0.1,0.5,0.2c0.1,0.1,0.1,0.2,0.1,0.4v12.1
			c0,0.4-0.2,0.6-0.6,0.6h-1.7c-0.4,0-0.6-0.2-0.6-0.6v-8.3h0c-0.6,0.9-1.3,1.7-1.9,2.6c-0.6,0.8-1.3,1.7-1.9,2.6
			c-0.4,0.5-0.8,1.1-1.2,1.6c-0.4,0.5-0.8,1.1-1.2,1.6c-0.1,0.1-0.2,0.3-0.4,0.4c-0.1,0.1-0.3,0.1-0.6,0.1h-1.2
			c-0.2,0-0.4,0-0.4-0.1s-0.1-0.2-0.1-0.4V121.1z"/>
		<path d="M323.2,127c0,1.1-0.1,2.1-0.2,2.9s-0.4,1.6-0.9,2.2c-0.4,0.6-1,1-1.6,1.4c-0.7,0.3-1.6,0.5-2.6,0.5c-0.5,0-1,0-1.6-0.1
			c-0.6-0.1-1.2-0.2-1.8-0.5l0,0v4.8c0,0.1,0,0.3-0.1,0.4c-0.1,0.1-0.2,0.2-0.4,0.2H312c-0.2,0-0.4,0-0.4-0.1
			c-0.1-0.1-0.1-0.2-0.1-0.4V121c0-0.4,0.2-0.5,0.5-0.5h1.9c0.2,0,0.3,0,0.4,0.1c0.1,0.1,0.1,0.2,0.1,0.4v0.8l0.1,0.1
			c0.2-0.2,0.5-0.3,0.9-0.5c0.3-0.2,0.7-0.4,1.1-0.5s0.8-0.3,1.2-0.4c0.4-0.1,0.8-0.2,1.2-0.2c0.9,0,1.6,0.2,2.2,0.5s1,0.8,1.4,1.4
			c0.3,0.6,0.6,1.3,0.7,2.1C323.1,125,323.2,126,323.2,127z M320.2,127c0-0.9,0-1.6-0.1-2.1s-0.2-0.9-0.4-1.2s-0.4-0.5-0.7-0.6
			c-0.3-0.1-0.6-0.1-0.9-0.1c-0.3,0-0.6,0-0.9,0.1c-0.3,0.1-0.7,0.2-1,0.3c-0.3,0.1-0.6,0.2-0.9,0.4c-0.3,0.1-0.5,0.3-0.7,0.4v6.8
			c0.6,0.2,1.2,0.3,1.7,0.4c0.5,0.1,1,0.1,1.4,0.1c0.5,0,0.9-0.1,1.2-0.2s0.6-0.4,0.8-0.7c0.2-0.3,0.4-0.8,0.4-1.4
			S320.2,127.8,320.2,127z"/>
		<path d="M337.3,126.9c0,0.8,0,1.6-0.1,2.4s-0.3,1.6-0.7,2.3c-0.4,0.7-1,1.3-1.8,1.7s-1.9,0.7-3.3,0.7c-1.3,0-2.4-0.2-3.2-0.7
			c-0.8-0.4-1.4-1-1.7-1.7c-0.4-0.7-0.6-1.5-0.7-2.3s-0.1-1.6-0.1-2.4c0-0.6,0.1-1.3,0.2-2.1c0.1-0.8,0.4-1.5,0.8-2.2
			c0.4-0.7,1-1.2,1.7-1.7s1.8-0.7,3.1-0.7c1.3,0,2.4,0.2,3.1,0.6c0.8,0.4,1.4,0.9,1.8,1.6s0.7,1.4,0.8,2.1S337.3,126.1,337.3,126.9z
			 M334.3,127c0-0.7,0-1.3-0.1-1.9c-0.1-0.5-0.2-1-0.4-1.3c-0.2-0.4-0.5-0.6-0.9-0.8c-0.4-0.2-0.9-0.3-1.5-0.3c-0.6,0-1,0.1-1.4,0.3
			s-0.6,0.5-0.9,0.8c-0.2,0.4-0.4,0.8-0.4,1.3s-0.1,1.1-0.1,1.8c0,0.7,0,1.3,0.1,1.9c0.1,0.5,0.2,1,0.4,1.3c0.2,0.4,0.5,0.6,0.8,0.8
			c0.4,0.2,0.8,0.3,1.4,0.3c0.6,0,1.1-0.1,1.5-0.3c0.4-0.2,0.7-0.4,0.9-0.8c0.2-0.4,0.4-0.8,0.4-1.3S334.3,127.8,334.3,127z"/>
		<path d="M340.9,133.7c-0.3,0-0.5,0-0.5-0.1s-0.1-0.2-0.1-0.4V121c0-0.2,0-0.3,0.1-0.4c0.1-0.1,0.2-0.1,0.5-0.1h5.8
			c1.6,0,2.7,0.3,3.4,1c0.7,0.6,1.1,1.5,1.1,2.6c0,0.4-0.1,0.8-0.3,1.3c-0.2,0.5-0.6,1-1.3,1.3c0.4,0.2,0.7,0.4,1,0.6
			s0.5,0.5,0.6,0.8c0.1,0.3,0.2,0.6,0.3,0.9c0.1,0.3,0.1,0.5,0.1,0.8c0,0.6-0.1,1.1-0.4,1.6c-0.2,0.5-0.6,0.9-1,1.2
			s-0.9,0.6-1.5,0.8c-0.6,0.2-1.1,0.3-1.8,0.3H340.9z M348.1,124.3c0-0.2,0-0.4-0.1-0.5c-0.1-0.2-0.2-0.3-0.3-0.4
			c-0.1-0.1-0.3-0.2-0.6-0.3c-0.2-0.1-0.5-0.1-0.9-0.1h-3.1v2.9h3.2c0.5,0,0.9-0.1,1.2-0.4C347.9,125,348.1,124.7,348.1,124.3z
			 M348.4,129.6c0-0.4-0.1-0.8-0.4-1.2c-0.3-0.3-0.8-0.5-1.4-0.5h-3.5v3.3h3.2c0.4,0,0.8-0.1,1.1-0.2c0.3-0.1,0.5-0.2,0.7-0.4
			c0.2-0.2,0.3-0.3,0.3-0.5C348.4,129.9,348.4,129.8,348.4,129.6z"/>
		<path d="M362.6,132.2c-0.7,0.5-1.5,0.9-2.3,1.3c-0.9,0.3-1.7,0.5-2.7,0.5c-0.7,0-1.3-0.1-1.8-0.3c-0.5-0.2-0.9-0.5-1.1-0.8
			s-0.5-0.7-0.6-1.2s-0.2-1-0.2-1.6c0-1.6,0.4-2.7,1.2-3.4c0.8-0.7,2.1-1.1,3.8-1.1h3.5v-0.7c0-0.4,0-0.7-0.1-1s-0.2-0.5-0.4-0.7
			c-0.2-0.2-0.5-0.3-0.9-0.4c-0.4-0.1-0.8-0.1-1.4-0.1c-0.2,0-0.5,0-0.8,0c-0.3,0-0.6,0-1,0.1c-0.3,0-0.7,0-1,0.1
			c-0.3,0-0.6,0.1-0.9,0.1c-0.3,0-0.5,0-0.6,0c-0.1,0-0.2-0.1-0.2-0.3l-0.2-1c0-0.2,0-0.3,0.1-0.4c0.1-0.1,0.3-0.2,0.6-0.4
			c0.3-0.1,0.6-0.2,1-0.3c0.4-0.1,0.8-0.1,1.2-0.2c0.4,0,0.8-0.1,1.2-0.1c0.4,0,0.8,0,1.1,0c1.2,0,2.1,0.1,2.8,0.4
			c0.7,0.2,1.2,0.6,1.6,1c0.4,0.4,0.6,0.9,0.7,1.6c0.1,0.6,0.2,1.3,0.2,2.1v5.2c0,0.3,0,0.5,0,0.6c0,0.2,0.1,0.3,0.1,0.4
			c0.1,0.1,0.2,0.1,0.3,0.2c0.1,0,0.3,0.1,0.5,0.1c0.2,0,0.3,0.1,0.4,0.1c0.1,0.1,0.1,0.2,0.1,0.3v1.1c0,0.3-0.2,0.5-0.6,0.6
			c-0.2,0-0.4,0.1-0.6,0.1c-0.2,0-0.4,0-0.6,0c-0.6,0-1.1-0.1-1.5-0.4C363,133.2,362.8,132.8,362.6,132.2L362.6,132.2z M362.4,127.7
			h-3.3c-0.7,0-1.2,0.2-1.6,0.5c-0.4,0.3-0.6,0.9-0.6,1.8c0,0.6,0.1,1,0.4,1.2c0.2,0.2,0.7,0.3,1.3,0.3c0.3,0,0.6,0,0.9-0.1
			s0.7-0.2,1-0.3c0.3-0.1,0.7-0.3,1-0.4c0.3-0.2,0.6-0.3,0.9-0.4V127.7z"/>
		<path d="M380.5,133.5c-0.1,0.1-0.2,0.1-0.5,0.1h-1.7c-0.4,0-0.6-0.2-0.6-0.6v-5.2H372v5.2c0,0.2,0,0.3-0.1,0.4s-0.2,0.1-0.4,0.1
			h-1.8c-0.4,0-0.6-0.2-0.6-0.6v-12.1c0-0.4,0.2-0.6,0.6-0.6h1.8c0.2,0,0.4,0.1,0.4,0.2c0.1,0.1,0.1,0.3,0.1,0.4v4.5h5.8v-4.5
			c0-0.4,0.2-0.6,0.6-0.6h1.7c0.2,0,0.4,0.1,0.5,0.2c0.1,0.1,0.1,0.3,0.1,0.4v12.1C380.6,133.3,380.6,133.4,380.5,133.5z"/>
		<path d="M395.2,133.5c-0.1,0.1-0.2,0.1-0.5,0.1H393c-0.4,0-0.6-0.2-0.6-0.6v-5.2h-5.8v5.2c0,0.2,0,0.3-0.1,0.4s-0.2,0.1-0.4,0.1
			h-1.8c-0.4,0-0.6-0.2-0.6-0.6v-12.1c0-0.4,0.2-0.6,0.6-0.6h1.8c0.2,0,0.4,0.1,0.4,0.2c0.1,0.1,0.1,0.3,0.1,0.4v4.5h5.8v-4.5
			c0-0.4,0.2-0.6,0.6-0.6h1.7c0.2,0,0.4,0.1,0.5,0.2c0.1,0.1,0.1,0.3,0.1,0.4v12.1C395.3,133.3,395.3,133.4,395.2,133.5z"/>
		<path d="M398.9,133.7c-0.3,0-0.4,0-0.5-0.1c-0.1-0.1-0.1-0.2-0.1-0.4V121c0-0.2,0-0.3,0.1-0.4c0.1-0.1,0.3-0.1,0.5-0.1h1.7
			c0.2,0,0.4,0,0.4,0.1s0.1,0.2,0.1,0.4v4.4h3.3c0.9,0,1.7,0.1,2.3,0.4s1.1,0.6,1.5,1c0.4,0.4,0.6,0.8,0.7,1.4
			c0.1,0.5,0.2,1,0.2,1.5c0,0.7-0.1,1.3-0.4,1.8c-0.3,0.5-0.6,0.9-1.1,1.3c-0.4,0.4-1,0.6-1.6,0.8c-0.6,0.2-1.3,0.3-2,0.3H398.9z
			 M406.5,129.5c0-0.5-0.2-0.9-0.5-1.3c-0.3-0.3-0.8-0.5-1.6-0.5h-3.1v3.5h3c0.7,0,1.2-0.1,1.6-0.4
			C406.3,130.5,406.5,130.1,406.5,129.5z M413.8,133.2c0,0.3-0.2,0.5-0.6,0.5h-1.8c-0.2,0-0.4,0-0.5-0.1c-0.1-0.1-0.1-0.2-0.1-0.4
			V121c0-0.4,0.2-0.5,0.6-0.5h1.8c0.4,0,0.6,0.2,0.6,0.5V133.2z"/>
		<path d="M423.4,126.9l4.3,6.2c0.1,0.1,0.1,0.3,0.1,0.4c-0.1,0.1-0.2,0.2-0.4,0.2h-2.3c-0.2,0-0.3,0-0.4-0.1
			c-0.1-0.1-0.2-0.2-0.3-0.3l-2.7-4.2l-2.7,4.2c-0.2,0.3-0.4,0.4-0.7,0.4H416c-0.2,0-0.3-0.1-0.3-0.2c0-0.1,0-0.2,0.1-0.4l4.3-6.2
			l-4-5.9c-0.1-0.1-0.1-0.2-0.1-0.4c0-0.1,0.2-0.2,0.3-0.2h2.3c0.2,0,0.3,0,0.4,0.1c0.1,0.1,0.1,0.2,0.3,0.3l2.5,3.9l2.5-3.9
			c0.1-0.1,0.2-0.2,0.2-0.3c0.1-0.1,0.2-0.1,0.4-0.1h2.4c0.2,0,0.3,0.1,0.4,0.2c0,0.1,0,0.2-0.1,0.4L423.4,126.9z"/>
		<path d="M124.8,158.5l-1.2,2.3c-0.3,0.5-0.5,1-0.7,1.4c-0.2,0.5-0.5,1-0.8,1.5c-0.2,0.3-0.4,0.5-0.8,0.5h-0.9
			c-0.3,0-0.4,0-0.5-0.1c-0.1-0.1-0.2-0.2-0.3-0.3c-0.3-0.5-0.5-0.9-0.7-1.3c-0.2-0.4-0.5-0.8-0.7-1.2c-0.2-0.4-0.5-0.9-0.7-1.3
			s-0.5-0.9-0.7-1.3h-0.1v7.1c0,0.4-0.2,0.5-0.6,0.5h-1.7c-0.4,0-0.6-0.2-0.6-0.5v-12.1c0-0.4,0.2-0.5,0.5-0.5h1.6
			c0.3,0,0.5,0,0.6,0.1s0.2,0.2,0.3,0.4c0.3,0.5,0.6,1,0.9,1.6c0.3,0.5,0.6,1,0.8,1.6c0.4,0.8,0.8,1.5,1.2,2.2
			c0.4,0.7,0.8,1.5,1.2,2.2l2.1-4l1.9-3.6c0.1-0.2,0.2-0.3,0.3-0.4c0.1-0.1,0.3-0.1,0.6-0.1h1.4c0.4,0,0.5,0.2,0.5,0.5v12.2
			c0,0.4-0.2,0.5-0.6,0.5h-1.7c-0.4,0-0.6-0.2-0.6-0.5L124.8,158.5L124.8,158.5z"/>
		<path d="M142.3,159.3c0,0.8,0,1.6-0.1,2.4s-0.3,1.6-0.7,2.3c-0.4,0.7-1,1.3-1.8,1.7c-0.8,0.4-1.9,0.7-3.3,0.7
			c-1.3,0-2.4-0.2-3.2-0.7c-0.8-0.4-1.4-1-1.7-1.7c-0.4-0.7-0.6-1.5-0.7-2.3s-0.1-1.6-0.1-2.4c0-0.6,0.1-1.3,0.2-2.1
			c0.1-0.8,0.4-1.5,0.8-2.2c0.4-0.7,1-1.2,1.7-1.7s1.8-0.7,3.1-0.7c1.3,0,2.4,0.2,3.1,0.6c0.8,0.4,1.4,0.9,1.8,1.6
			c0.4,0.6,0.7,1.4,0.8,2.1C142.3,157.7,142.3,158.5,142.3,159.3z M139.3,159.4c0-0.7,0-1.3-0.1-1.9c-0.1-0.5-0.2-1-0.4-1.3
			c-0.2-0.4-0.5-0.6-0.9-0.8s-0.9-0.3-1.5-0.3c-0.6,0-1,0.1-1.4,0.3c-0.4,0.2-0.6,0.5-0.9,0.8c-0.2,0.4-0.4,0.8-0.4,1.3
			s-0.1,1.1-0.1,1.8c0,0.7,0,1.3,0.1,1.9c0.1,0.5,0.2,1,0.4,1.3c0.2,0.4,0.5,0.6,0.8,0.8c0.4,0.2,0.8,0.3,1.4,0.3
			c0.6,0,1.1-0.1,1.5-0.3c0.4-0.2,0.7-0.4,0.9-0.8c0.2-0.4,0.4-0.8,0.4-1.3S139.3,160.2,139.3,159.4z"/>
		<path d="M156.7,165.9c-0.1,0.1-0.2,0.1-0.5,0.1h-1.7c-0.4,0-0.6-0.2-0.6-0.6v-5.2h-5.8v5.2c0,0.2,0,0.3-0.1,0.4
			c-0.1,0.1-0.2,0.1-0.4,0.1h-1.8c-0.4,0-0.6-0.2-0.6-0.6v-12.1c0-0.4,0.2-0.6,0.6-0.6h1.8c0.2,0,0.4,0.1,0.4,0.2
			c0.1,0.1,0.1,0.3,0.1,0.4v4.5h5.8v-4.5c0-0.4,0.2-0.6,0.6-0.6h1.7c0.2,0,0.4,0.1,0.5,0.2c0.1,0.1,0.1,0.3,0.1,0.4v12.1
			C156.8,165.7,156.8,165.8,156.7,165.9z"/>
		<path d="M166,155.3v10.3c0,0.3-0.2,0.5-0.6,0.5h-1.7c-0.2,0-0.4,0-0.5-0.1c-0.1-0.1-0.2-0.2-0.2-0.4v-10.3h-3.7
			c-0.2,0-0.3,0-0.4-0.1s-0.1-0.2-0.1-0.4v-1.3c0-0.2,0-0.3,0.1-0.4c0.1-0.1,0.2-0.1,0.4-0.1h10.4c0.2,0,0.4,0,0.4,0.1
			c0.1,0.1,0.1,0.2,0.1,0.4v1.3c0,0.2,0,0.4-0.1,0.4c-0.1,0.1-0.2,0.1-0.4,0.1H166z"/>
		<path d="M179.2,164.6c-0.7,0.5-1.5,0.9-2.3,1.3c-0.9,0.3-1.7,0.5-2.7,0.5c-0.7,0-1.3-0.1-1.8-0.3c-0.5-0.2-0.9-0.5-1.1-0.8
			c-0.3-0.3-0.5-0.7-0.6-1.2c-0.1-0.5-0.2-1-0.2-1.6c0-1.6,0.4-2.7,1.2-3.4c0.8-0.7,2.1-1.1,3.8-1.1h3.5v-0.7c0-0.4,0-0.7-0.1-1
			s-0.2-0.5-0.4-0.7c-0.2-0.2-0.5-0.3-0.9-0.4c-0.4-0.1-0.8-0.1-1.4-0.1c-0.2,0-0.5,0-0.8,0c-0.3,0-0.6,0-1,0.1s-0.7,0-1,0.1
			s-0.6,0.1-0.9,0.1c-0.3,0-0.5,0-0.6,0c-0.1,0-0.2-0.1-0.2-0.3l-0.2-1c0-0.2,0-0.3,0.1-0.4c0.1-0.1,0.3-0.2,0.6-0.4
			c0.3-0.1,0.6-0.2,1-0.3c0.4-0.1,0.8-0.1,1.2-0.2c0.4,0,0.8-0.1,1.2-0.1c0.4,0,0.8,0,1.1,0c1.2,0,2.1,0.1,2.8,0.4
			c0.7,0.2,1.2,0.6,1.6,1c0.4,0.4,0.6,0.9,0.7,1.6c0.1,0.6,0.2,1.3,0.2,2.1v5.2c0,0.3,0,0.5,0,0.6c0,0.2,0.1,0.3,0.1,0.4
			c0.1,0.1,0.2,0.1,0.3,0.2s0.3,0.1,0.5,0.1c0.2,0,0.3,0.1,0.4,0.1s0.1,0.2,0.1,0.3v1.1c0,0.3-0.2,0.5-0.6,0.6
			c-0.2,0-0.4,0.1-0.6,0.1c-0.2,0-0.4,0-0.6,0c-0.6,0-1.1-0.1-1.5-0.4C179.7,165.6,179.4,165.2,179.2,164.6L179.2,164.6z M179,160.1
			h-3.3c-0.7,0-1.2,0.2-1.6,0.5c-0.4,0.3-0.6,0.9-0.6,1.8c0,0.6,0.1,1,0.4,1.2c0.2,0.2,0.7,0.3,1.3,0.3c0.3,0,0.6,0,0.9-0.1
			c0.3-0.1,0.7-0.2,1-0.3s0.7-0.3,1-0.4c0.3-0.2,0.6-0.3,0.9-0.4V160.1z"/>
		<path d="M195.4,165.6c0,0.1,0,0.3-0.1,0.3s-0.2,0.1-0.4,0.1h-2c-0.3,0-0.5-0.2-0.5-0.5v-5h-1.1c-0.5,0-1,0.1-1.5,0.4
			s-0.8,0.8-1.1,1.6l-1.1,3.1c-0.1,0.2-0.1,0.3-0.3,0.3c-0.1,0.1-0.3,0.1-0.5,0.1h-1.8c-0.3,0-0.4-0.1-0.5-0.2c0-0.1,0-0.3,0-0.4
			l1.2-3.6c0.3-0.7,0.5-1.3,0.8-1.7s0.8-0.7,1.4-0.9v0c-0.5-0.1-0.9-0.5-1.2-0.9c-0.3-0.5-0.6-1.2-0.9-2l-0.9-2.8
			c-0.1-0.2-0.1-0.3,0-0.4c0-0.1,0.2-0.2,0.4-0.2h1.6c0.2,0,0.4,0,0.5,0.1c0.1,0.1,0.2,0.2,0.3,0.3l1.1,2.9c0.2,0.4,0.3,0.8,0.5,1
			c0.2,0.3,0.4,0.4,0.5,0.6c0.2,0.1,0.4,0.2,0.6,0.3c0.2,0,0.5,0.1,0.7,0.1h1.1v-4.8c0-0.3,0.2-0.5,0.5-0.5h2c0.2,0,0.3,0,0.4,0.1
			c0.1,0.1,0.1,0.2,0.1,0.4v4.8h1.1c0.3,0,0.5,0,0.7-0.1c0.2,0,0.4-0.1,0.6-0.3c0.2-0.1,0.4-0.3,0.5-0.6c0.2-0.3,0.3-0.6,0.5-1
			l1.1-2.9c0.1-0.2,0.2-0.3,0.3-0.3c0.1-0.1,0.3-0.1,0.5-0.1h1.6c0.3,0,0.4,0.1,0.4,0.2c0,0.1,0,0.3,0,0.4l-0.9,2.8
			c-0.3,0.8-0.6,1.5-0.9,2c-0.3,0.5-0.7,0.8-1.2,0.9v0c0.6,0.2,1.1,0.5,1.4,0.9c0.3,0.4,0.6,1,0.8,1.7l1.2,3.6
			c0.1,0.2,0.1,0.3,0,0.4c0,0.1-0.2,0.2-0.5,0.2h-1.8c-0.2,0-0.4,0-0.5-0.1c-0.1-0.1-0.2-0.2-0.3-0.3l-1.1-3.1
			c-0.3-0.8-0.7-1.4-1.1-1.6c-0.5-0.3-1-0.4-1.5-0.4h-1.1V165.6z"/>
		<path d="M216.8,165.9c-0.1,0.1-0.2,0.1-0.5,0.1h-1.7c-0.4,0-0.6-0.2-0.6-0.6v-5.2h-5.8v5.2c0,0.2,0,0.3-0.1,0.4
			c-0.1,0.1-0.2,0.1-0.4,0.1h-1.8c-0.4,0-0.6-0.2-0.6-0.6v-12.1c0-0.4,0.2-0.6,0.6-0.6h1.8c0.2,0,0.4,0.1,0.4,0.2
			c0.1,0.1,0.1,0.3,0.1,0.4v4.5h5.8v-4.5c0-0.4,0.2-0.6,0.6-0.6h1.7c0.2,0,0.4,0.1,0.5,0.2c0.1,0.1,0.1,0.3,0.1,0.4v12.1
			C216.9,165.7,216.9,165.8,216.8,165.9z"/>
		<path d="M220,153.5c0-0.2,0-0.3,0.1-0.4c0.1-0.1,0.2-0.1,0.4-0.1h1.8c0.3,0,0.4,0.1,0.5,0.2c0.1,0.1,0.1,0.3,0.1,0.4v7.9h0.1
			l3.5-4.8l2.4-3.2c0.1-0.1,0.2-0.3,0.3-0.4s0.3-0.1,0.6-0.1h1.4c0.2,0,0.4,0.1,0.5,0.2c0.1,0.1,0.1,0.2,0.1,0.4v12.1
			c0,0.4-0.2,0.6-0.6,0.6h-1.7c-0.4,0-0.6-0.2-0.6-0.6v-8.3h0c-0.6,0.9-1.3,1.7-1.9,2.6c-0.6,0.8-1.3,1.7-1.9,2.6
			c-0.4,0.5-0.8,1.1-1.2,1.6c-0.4,0.5-0.8,1.1-1.2,1.6c-0.1,0.1-0.2,0.3-0.4,0.4c-0.1,0.1-0.3,0.1-0.6,0.1h-1.2
			c-0.2,0-0.4,0-0.4-0.1s-0.1-0.2-0.1-0.4V153.5z"/>
		<path d="M237.8,165.6c0,0.1,0,0.3-0.1,0.3s-0.2,0.1-0.4,0.1h-2c-0.3,0-0.5-0.2-0.5-0.5v-12.3c0-0.3,0.2-0.5,0.5-0.5h2
			c0.2,0,0.3,0,0.4,0.1c0.1,0.1,0.1,0.2,0.1,0.4v4.8h1.4c0.3,0,0.5,0,0.7-0.1c0.2,0,0.4-0.1,0.6-0.3c0.2-0.1,0.4-0.3,0.5-0.6
			c0.2-0.3,0.3-0.6,0.5-1l1.1-2.9c0.1-0.2,0.2-0.3,0.3-0.3c0.1-0.1,0.3-0.1,0.5-0.1h1.6c0.3,0,0.4,0.1,0.4,0.2c0,0.1,0,0.3,0,0.4
			l-0.9,2.8c-0.3,0.8-0.6,1.5-0.9,2c-0.3,0.5-0.7,0.8-1.2,0.9v0c0.6,0.2,1.1,0.5,1.4,0.9c0.3,0.4,0.6,1,0.8,1.7l1.2,3.6
			c0.1,0.2,0.1,0.3,0,0.4c0,0.1-0.2,0.2-0.5,0.2h-1.8c-0.2,0-0.4,0-0.5-0.1s-0.2-0.2-0.3-0.3l-1.1-3.1c-0.3-0.8-0.7-1.4-1.1-1.6
			c-0.5-0.3-1-0.4-1.5-0.4h-1.4V165.6z"/>
		<path d="M259.8,159.3c0,0.8,0,1.6-0.1,2.4s-0.3,1.6-0.7,2.3c-0.4,0.7-1,1.3-1.8,1.7s-1.9,0.7-3.3,0.7c-1.3,0-2.4-0.2-3.2-0.7
			c-0.8-0.4-1.4-1-1.7-1.7c-0.4-0.7-0.6-1.5-0.7-2.3s-0.1-1.6-0.1-2.4c0-0.6,0.1-1.3,0.2-2.1c0.1-0.8,0.4-1.5,0.8-2.2s1-1.2,1.7-1.7
			c0.8-0.5,1.8-0.7,3.1-0.7c1.3,0,2.4,0.2,3.1,0.6c0.8,0.4,1.4,0.9,1.8,1.6c0.4,0.6,0.7,1.4,0.8,2.1S259.8,158.5,259.8,159.3z
			 M256.8,159.4c0-0.7,0-1.3-0.1-1.9c-0.1-0.5-0.2-1-0.4-1.3c-0.2-0.4-0.5-0.6-0.9-0.8s-0.9-0.3-1.5-0.3c-0.6,0-1,0.1-1.4,0.3
			s-0.6,0.5-0.9,0.8c-0.2,0.4-0.4,0.8-0.4,1.3s-0.1,1.1-0.1,1.8c0,0.7,0,1.3,0.1,1.9c0.1,0.5,0.2,1,0.4,1.3c0.2,0.4,0.5,0.6,0.8,0.8
			c0.4,0.2,0.8,0.3,1.4,0.3c0.6,0,1.1-0.1,1.5-0.3c0.4-0.2,0.7-0.4,0.9-0.8c0.2-0.4,0.4-0.8,0.4-1.3
			C256.8,160.8,256.8,160.2,256.8,159.4z"/>
		<path d="M263.3,166.1c-0.3,0-0.4,0-0.5-0.1c-0.1-0.1-0.1-0.2-0.1-0.4v-12.1c0-0.2,0-0.3,0.1-0.4c0.1-0.1,0.2-0.1,0.5-0.1h5.8
			c1.6,0,2.7,0.3,3.4,1c0.7,0.6,1.1,1.5,1.1,2.6c0,0.4-0.1,0.8-0.3,1.3c-0.2,0.5-0.6,1-1.3,1.3c0.4,0.2,0.7,0.4,1,0.6
			s0.5,0.5,0.6,0.8c0.1,0.3,0.2,0.6,0.3,0.9c0.1,0.3,0.1,0.5,0.1,0.8c0,0.6-0.1,1.1-0.4,1.6c-0.2,0.5-0.6,0.9-1,1.2
			s-0.9,0.6-1.5,0.8c-0.6,0.2-1.1,0.3-1.8,0.3H263.3z M270.5,156.7c0-0.2,0-0.4-0.1-0.5c-0.1-0.2-0.2-0.3-0.3-0.4
			c-0.1-0.1-0.3-0.2-0.6-0.3s-0.5-0.1-0.9-0.1h-3.1v2.9h3.2c0.5,0,0.9-0.1,1.2-0.4C270.4,157.4,270.5,157.1,270.5,156.7z M270.9,162
			c0-0.4-0.1-0.8-0.4-1.2c-0.3-0.3-0.8-0.5-1.4-0.5h-3.5v3.3h3.2c0.4,0,0.8-0.1,1.1-0.2c0.3-0.1,0.5-0.2,0.7-0.4
			c0.2-0.2,0.3-0.3,0.3-0.5C270.9,162.3,270.9,162.2,270.9,162z"/>
	</g>
	<g>
		<path d="M364,51.7c0,1.4-0.2,2.8-0.6,4.3c-0.4,1.5-1.1,2.8-2.1,4c-1,1.2-2.3,2.2-3.9,3c-1.6,0.8-3.7,1.1-6.2,1.1h-8.1v15.6
			c0,0.7-0.3,1.1-1,1.1h-2.6c-0.7,0-1.1-0.4-1.1-1.1V40.8c0-0.7,0.4-1,1.1-1h11.8c1.8,0,3.5,0.2,5.1,0.7c1.6,0.5,2.9,1.2,4.1,2.2
			c1.1,1,2,2.2,2.7,3.8C363.6,48,364,49.8,364,51.7z M359.2,51.8c0-2.6-0.8-4.5-2.3-5.8c-1.5-1.2-3.6-1.9-6.1-1.9h-7.7v15.7h8.1
			c1.6,0,2.9-0.2,3.9-0.7c1-0.5,1.9-1.1,2.5-1.8c0.6-0.8,1-1.6,1.3-2.6C359.1,53.8,359.2,52.8,359.2,51.8z"/>
		<path d="M395.1,79.8c0.1,0.3,0.1,0.5,0,0.7s-0.3,0.3-0.6,0.3H391c-0.3,0-0.6-0.1-0.8-0.2c-0.2-0.1-0.4-0.3-0.6-0.7l-7.9-16.5h-8.1
			v16.2c0,0.7-0.4,1.1-1.1,1.1h-2.7c-0.7,0-1.1-0.4-1.1-1.1V40.8c0-0.7,0.4-1,1.1-1h12.6c1.5,0,3,0.2,4.5,0.7c1.4,0.4,2.7,1.1,3.8,2
			c1.1,0.9,2,2.1,2.7,3.6c0.7,1.5,1,3.3,1,5.3c0,1.2-0.1,2.3-0.4,3.5c-0.3,1.2-0.7,2.3-1.4,3.3c-0.6,1-1.4,2-2.4,2.8
			c-1,0.8-2.2,1.4-3.6,1.9L395.1,79.8z M389.5,51.3c0-1.5-0.2-2.6-0.7-3.6c-0.5-0.9-1.1-1.7-1.8-2.2c-0.8-0.5-1.6-0.9-2.6-1.1
			c-1-0.2-2-0.3-3-0.3h-7.8v15.1h7.6c0.9,0,1.8-0.1,2.8-0.3c1-0.2,1.9-0.6,2.7-1.1c0.8-0.6,1.5-1.4,2-2.4
			C389.2,54.4,389.5,53,389.5,51.3z"/>
		<path d="M431.2,59.7c0,2.4-0.1,4.9-0.4,7.5c-0.3,2.6-1,4.9-2.1,7c-1.1,2.1-2.7,3.8-4.9,5.2c-2.1,1.3-5.1,2-8.7,2
			c-2.4,0-4.5-0.3-6.2-0.9c-1.7-0.6-3.1-1.5-4.3-2.5c-1.2-1.1-2.1-2.3-2.8-3.7c-0.7-1.4-1.2-2.9-1.6-4.6c-0.4-1.6-0.6-3.3-0.7-5
			c-0.1-1.7-0.2-3.4-0.2-5c0-1.3,0.1-2.7,0.2-4.2c0.1-1.5,0.4-3,0.7-4.5c0.4-1.5,0.9-3,1.6-4.4c0.7-1.4,1.7-2.7,2.8-3.8
			c1.2-1.1,2.6-1.9,4.3-2.6c1.7-0.7,3.7-1,6.1-1c3.5,0,6.3,0.6,8.4,1.8c2.1,1.2,3.7,2.8,4.9,4.7s1.8,4.1,2.2,6.5
			C431,54.7,431.2,57.2,431.2,59.7z M426.4,60.3c0-2.7-0.2-5.1-0.5-7.2c-0.4-2.1-1-3.9-1.8-5.3c-0.9-1.4-2-2.5-3.5-3.2
			c-1.4-0.7-3.3-1.1-5.5-1.1c-2.1,0-3.8,0.4-5.2,1.2c-1.4,0.8-2.5,1.9-3.3,3.4c-0.8,1.5-1.4,3.2-1.8,5.3c-0.4,2.1-0.5,4.4-0.5,7
			c0,2.5,0.2,4.8,0.5,6.8c0.3,2,0.9,3.8,1.7,5.3c0.8,1.5,1.9,2.6,3.3,3.4c1.4,0.8,3.2,1.2,5.4,1.2c2.2,0,4.1-0.4,5.5-1.1
			c1.4-0.8,2.6-1.9,3.5-3.3c0.9-1.4,1.5-3.2,1.8-5.3C426.3,65.3,426.4,62.9,426.4,60.3z"/>
	</g>
	<circle fill="#DF1764" cx="87.7" cy="124.1" r="14.2"/>
	<rect x="307.5" y="30.8" width="3" height="59.1"/>
	<g>
		<path fill="#FFFFFF" d="M93.3,119.8c0,0.5-0.1,0.9-0.2,1.3c-0.1,0.4-0.3,0.7-0.5,1c-0.2,0.3-0.5,0.5-0.7,0.8
			c-0.3,0.2-0.5,0.4-0.8,0.6c-0.4,0.3-0.7,0.5-1,0.8s-0.5,0.5-0.8,0.8c-0.2,0.3-0.4,0.6-0.5,1s-0.2,0.8-0.2,1.2v1.3
			c0,0.1,0,0.3-0.1,0.4c0,0.1-0.1,0.1-0.3,0.1h-1.7c-0.2,0-0.3,0-0.4-0.1c-0.1-0.1-0.1-0.2-0.2-0.4c0-0.3-0.1-0.6-0.1-0.9
			c0-0.3,0-0.5,0-0.7c0-0.6,0.1-1.2,0.2-1.7c0.2-0.5,0.4-0.9,0.7-1.3c0.3-0.4,0.6-0.8,1-1.1s0.8-0.7,1.2-1.1
			c0.3-0.3,0.6-0.5,0.8-0.8c0.2-0.2,0.3-0.5,0.3-0.9c0-0.7-0.2-1.2-0.6-1.4c-0.4-0.3-1.1-0.4-2.1-0.4c-0.4,0-0.9,0-1.4,0.1
			c-0.5,0-1,0.1-1.4,0.1c-0.3,0-0.4,0-0.5-0.1c-0.1-0.1-0.1-0.2-0.1-0.3l-0.2-1.1c0-0.2,0-0.3,0-0.4s0.2-0.2,0.4-0.3
			c0.6-0.3,1.2-0.4,1.8-0.5c0.6-0.1,1.2-0.1,1.6-0.1c1.8,0,3.1,0.4,4,1.1C92.8,117.4,93.3,118.4,93.3,119.8z M89,132.3
			c0,0.2,0,0.4-0.1,0.6c0,0.2-0.1,0.4-0.2,0.5c-0.1,0.1-0.3,0.3-0.5,0.4c-0.2,0.1-0.5,0.1-0.8,0.1c-0.4,0-0.6,0-0.9-0.1
			c-0.2-0.1-0.4-0.2-0.5-0.4c-0.1-0.1-0.2-0.3-0.2-0.5c0-0.2-0.1-0.4-0.1-0.6c0-0.4,0.1-0.8,0.3-1.1c0.2-0.3,0.6-0.5,1.3-0.5
			c0.7,0,1.1,0.1,1.3,0.4C88.9,131.5,89,131.9,89,132.3z"/>
	</g>
</g>
</svg>
