<?xml version="1.0" standalone="no"?>
<!DOCTYPE svg PUBLIC "-//W3C//DTD SVG 20010904//EN"
 "http://www.w3.org/TR/2001/REC-SVG-20010904/DTD/svg10.dtd">
<svg version="1.0" xmlns="http://www.w3.org/2000/svg"
 width="616.000000pt" height="616.000000pt" viewBox="0 0 616.000000 616.000000"
 preserveAspectRatio="xMidYMid meet">
<metadata>
Created by potrace 1.11, written by Peter Selinger 2001-2013
</metadata>
<g transform="translate(0.000000,616.000000) scale(0.100000,-0.100000)"
fill="#000000" stroke="none">
<path d="M3607 5384 c-1 -2 -38 -6 -82 -9 -124 -9 -264 -25 -360 -39 -11 -2
-40 -6 -65 -10 -25 -4 -58 -9 -75 -13 -16 -3 -39 -7 -50 -9 -11 -2 -29 -5 -40
-7 -11 -3 -40 -8 -65 -13 -54 -10 -39 -6 -133 -28 -43 -10 -76 -21 -72 -24 4
-4 10 -7 13 -7 20 -2 56 -15 247 -91 209 -84 538 -254 724 -376 41 -26 77 -48
82 -48 4 0 9 -3 11 -7 2 -5 30 -26 63 -47 60 -39 286 -204 295 -215 3 -4 30
-26 60 -49 160 -126 417 -369 568 -538 30 -32 66 -72 81 -89 47 -51 241 -293
241 -300 0 -4 7 -14 16 -22 28 -28 220 -325 269 -415 26 -49 50 -90 53 -92 23
-14 21 924 -2 1039 -2 11 -7 43 -10 70 -15 109 -20 134 -52 270 -3 11 -7 29
-9 40 -6 32 -40 133 -75 225 -70 179 -204 362 -360 490 -30 25 -57 47 -60 50
-26 26 -145 97 -230 138 -117 55 -205 85 -320 109 -8 1 -31 6 -50 10 -32 6
-607 13 -613 7z"/>
<path d="M2155 5007 c-55 -29 -102 -55 -105 -58 -3 -3 -43 -26 -90 -51 -177
-95 -233 -128 -399 -236 -104 -68 -183 -123 -220 -154 -7 -6 -34 -27 -60 -46
-25 -19 -53 -42 -62 -51 -9 -9 -36 -33 -61 -53 -78 -65 -222 -214 -258 -268
-8 -12 -20 -28 -25 -34 -29 -31 -124 -213 -140 -266 -1 -3 -11 -36 -23 -74
-12 -37 -24 -78 -26 -90 -2 -11 -9 -41 -14 -66 -38 -166 -32 -414 14 -585 7
-27 16 -61 19 -75 7 -28 65 -169 75 -185 4 -5 24 -41 45 -80 71 -132 198 -341
242 -400 5 -5 21 -29 36 -53 15 -23 34 -50 42 -60 7 -9 37 -48 66 -87 49 -66
152 -197 174 -221 6 -6 35 -40 65 -75 83 -96 173 -189 183 -189 4 0 6 8 3 18
-4 15 -11 51 -21 117 -2 11 -6 36 -10 55 -7 36 -12 78 -19 168 -3 29 -7 56
-10 60 -27 43 -28 823 -1 1017 2 17 6 60 10 96 3 36 8 77 10 90 3 13 8 40 11
59 11 70 34 206 40 230 3 14 7 36 9 50 10 65 99 390 143 526 46 137 157 426
181 471 5 10 46 92 91 183 44 91 90 181 101 200 12 19 32 55 46 80 13 25 31
55 40 68 8 12 12 22 7 21 -5 0 -54 -24 -109 -52z"/>
<path d="M5239 2497 c-13 -12 -49 -43 -79 -67 -30 -25 -57 -47 -60 -50 -11
-12 -199 -149 -290 -211 -310 -213 -638 -386 -989 -523 -179 -70 -501 -175
-581 -190 -14 -2 -26 -5 -27 -7 -3 -2 -3 -2 -58 -14 -22 -4 -44 -9 -50 -11
-57 -15 -209 -43 -213 -39 -2 2 -12 0 -21 -4 -9 -5 -34 -11 -56 -15 -22 -3
-51 -8 -65 -10 -14 -3 -45 -7 -70 -10 -25 -3 -61 -8 -80 -10 -32 -4 -88 -10
-195 -21 -70 -7 -246 -15 -375 -16 -106 -1 -121 -4 -104 -15 10 -7 24 -17 29
-21 6 -5 21 -14 35 -21 14 -7 63 -37 110 -66 47 -30 130 -81 185 -113 55 -32
108 -62 117 -68 66 -39 336 -173 407 -202 47 -19 100 -41 116 -48 39 -18 243
-85 275 -91 14 -3 34 -8 45 -11 22 -8 26 -8 75 -17 19 -3 46 -8 60 -11 22 -4
156 -17 185 -18 80 -1 340 32 340 43 0 1 8 3 17 5 93 18 268 99 392 183 86 57
306 256 306 275 0 6 6 14 57 75 13 15 23 30 23 33 0 3 22 44 50 90 27 46 50
90 50 97 0 6 4 12 8 12 5 0 24 33 43 73 19 39 36 74 39 77 8 8 140 287 140
297 0 2 12 30 26 61 15 31 30 66 35 77 19 44 93 245 121 330 16 50 32 97 35
105 3 8 7 20 8 25 2 6 6 22 10 38 9 33 5 34 -26 4z"/>
</g>
</svg>
